<svg enable-background="new 0 0 440 428" viewBox="0 0 440 428" xmlns="http://www.w3.org/2000/svg"><path d="m173.6 29.2h-92.7c0 191.5 155.3 346.8 346.8 346.8v-92.7c-140.4-.1-254.1-113.8-254.1-254.1" fill="#c9e9f4"/><path d="m427.7 189.6v-160.5h-160.5c0 88.6 71.8 160.5 160.5 160.5" fill="#67bbe2"/><path d="m267.2 29.1h-93.6c0 140.3 113.7 254.1 254 254.1v-93.6c-88.6 0-160.4-71.9-160.4-160.5" fill="#9bddf8"/><path d="m427.2 29.6v376.6h-376.6v-376.6zm.5-.5h-377.6v377.6h377.6z" fill="#666"/><path d="m88.2 21.6c0 .6.2 1.2.6 1.6s1.1.6 2.1.6c.9 0 1.6-.2 2-.6s.7-.9.7-1.5-.2-1-.6-1.3c-.3-.2-.8-.4-1.6-.5l-.7-.2c-.3-.1-.6-.2-.7-.3-.3-.2-.4-.4-.4-.7s.1-.5.3-.6.5-.2.9-.2c.6 0 1.1.1 1.3.4.2.2.2.4.3.7h1c0-.4-.1-.8-.4-1.2-.4-.6-1.1-.8-2.1-.8-.7 0-1.3.2-1.8.6-.4.4-.7.9-.7 1.5 0 .5.2.9.7 1.2.3.2.7.3 1.2.5l.9.2c.5.1.8.2.9.3.2.1.4.4.4.6 0 .4-.2.6-.5.8s-.7.3-1.1.3c-.7 0-1.2-.2-1.4-.5-.2-.2-.2-.5-.3-.8h-1zm-3.7 2h1.1v-3.7c0-.5.1-.9.4-1.2s.7-.5 1.2-.5h.2.2v-1.1c-.1 0-.2 0-.2 0h-.1c-.4 0-.8.2-1.1.5s-.5.6-.6.8v-1.1h-1v6.3zm-6-3.7c0-.5.2-1 .5-1.4s.7-.5 1.2-.5c.7 0 1.2.3 1.5.8.2.3.3.7.3 1.1zm1.8-2.9c-.9 0-1.6.3-2.2 1-.6.6-.8 1.5-.8 2.5s.3 1.9.8 2.4c.6.6 1.2.9 2 .9.3 0 .6 0 .9-.1.5-.1.9-.3 1.2-.6.2-.2.4-.4.5-.7.2-.3.3-.6.3-.8h-1c-.1.3-.2.5-.4.8-.3.4-.8.6-1.3.6-.6 0-1-.2-1.3-.6s-.4-.9-.5-1.6h4.7c0-.6 0-1.1-.1-1.4-.1-.4-.2-.8-.4-1.1s-.5-.6-1-.8c-.5-.4-.9-.5-1.4-.5zm-5.3 3.3c0 .5-.1 1-.3 1.4-.3.7-.9 1-1.6 1-.5 0-.9-.2-1.2-.6s-.4-.9-.4-1.6c0-.6.1-1.1.2-1.5.3-.7.8-1.1 1.5-1.1.5 0 .9.2 1.2.6.5.5.6 1.1.6 1.8zm-1.9-3.2c-.7 0-1.4.3-1.9.9s-.8 1.4-.8 2.5.3 2 .8 2.4c.5.5 1.1.7 1.8.7.5 0 .9-.1 1.2-.2.3-.2.6-.4.8-.7 0 .9-.1 1.5-.2 1.8-.3.6-.8.9-1.6.9-.5 0-.9-.1-1.1-.4-.2-.2-.3-.4-.3-.7h-1.1c.1.7.3 1.1.8 1.5.5.3 1 .5 1.7.5 1.2 0 2.1-.4 2.5-1.3.2-.5.4-1.1.4-1.9v-5.8h-1v.7c-.2-.3-.4-.5-.6-.6-.5-.2-.9-.3-1.4-.3zm-9.1 6.5h1.1v-3.4c0-.4 0-.7.1-1 .1-.2.2-.4.4-.7s.5-.4.8-.5c.2-.1.4-.1.6-.1.5 0 .8.2 1 .6.1.2.2.6.2.9v4h1.1v-4.1c0-.6-.1-1.1-.3-1.5-.3-.6-.9-1-1.8-1-.4 0-.8.1-1.1.2-.3.2-.7.4-1 .8v-.9h-1v6.7zm-6-3.7c0-.5.2-1 .5-1.4s.7-.5 1.2-.5c.7 0 1.2.3 1.5.8.2.3.3.7.3 1.1zm1.9-2.9c-.9 0-1.6.3-2.2 1-.6.6-.8 1.5-.8 2.5s.3 1.9.8 2.4c.6.6 1.2.9 2 .9.3 0 .6 0 .9-.1.5-.1.9-.3 1.2-.6.2-.2.4-.4.5-.7.2-.3.3-.6.3-.8h-1.1c-.1.3-.2.5-.4.8-.3.4-.8.6-1.3.6-.6 0-1-.2-1.3-.6s-.4-.9-.5-1.6h4.7c0-.6 0-1.1-.1-1.4-.1-.4-.2-.8-.4-1.1s-.5-.6-1-.8c-.4-.4-.9-.5-1.3-.5zm-5.4 6.6h1.1v-8.8h-1.1zm-2.7 0h1.1v-8.8h-1.1zm-5.1-3.7c-.6.1-1.1.3-1.5.6s-.6.8-.6 1.4c0 .5.2 1 .6 1.4s.9.5 1.5.5c.5 0 .9-.1 1.4-.3s.7-.5.9-.7c0 .3.1.5.2.6.2.3.4.4.8.4h.4c.1 0 .2 0 .4-.1v-.8h-.2-.2c-.1 0-.2 0-.3-.1s-.1-.2-.1-.3v-3.7c0-.6-.2-1.1-.7-1.3-.5-.3-1.1-.4-1.8-.4-.6 0-1.2.2-1.7.5s-.7.9-.8 1.7h1c0-.3.1-.6.3-.8.2-.3.6-.5 1.2-.5.5 0 .9.1 1.1.2.3.2.4.4.4.8 0 .2 0 .3-.1.4-.1.2-.2.3-.5.3zm-.9 2c0-.4.2-.7.5-.9.2-.1.5-.2.9-.2l.7-.1c.2 0 .4-.1.6-.1.2-.1.4-.1.5-.2v.9c0 .7-.3 1.1-.9 1.4-.4.2-.7.3-1.1.3-.3 0-.6-.1-.8-.3-.3-.3-.4-.5-.4-.8zm-7.6 1.7h1.1v-3.4c0-.9.2-1.4.5-1.7.4-.3.8-.5 1.2-.5.5 0 .9.2 1.1.5.1.2.2.6.2 1v4h1.1v-4.1c0-.6-.1-1.1-.3-1.5-.3-.6-1-1-1.9-1-.5 0-1 .1-1.3.3-.2.1-.4.4-.7.7v-3.3h-1.1v9zm-5.1-9.1c-1.3 0-2.3.5-3 1.4-.7.8-1 1.9-1 3.2 0 1.7.5 3 1.4 3.8.7.6 1.5.9 2.5.9 1.2 0 2.1-.4 2.8-1.1.6-.6.9-1.4 1-2.3h-1.2c-.1.6-.3 1-.5 1.4-.5.7-1.1 1-2 1s-1.6-.3-2.1-1c-.5-.6-.7-1.5-.7-2.5 0-1.3.3-2.2.8-2.8s1.2-.9 2.1-.9c.7 0 1.2.2 1.6.5s.6.8.8 1.3h1.2c-.1-.7-.4-1.4-1-2s-1.6-.9-2.7-.9z" fill="#333"/><path d="m167.2 21.6c0 .6.2 1.2.6 1.6s1.1.6 2.1.6c.9 0 1.6-.2 2-.6s.7-.9.7-1.5-.2-1-.6-1.3c-.3-.2-.8-.4-1.6-.5l-.7-.2c-.3-.1-.6-.2-.7-.3-.3-.2-.4-.4-.4-.7s.1-.5.3-.6.5-.2.9-.2c.6 0 1.1.1 1.3.4.2.2.2.4.3.7h1c0-.4-.1-.8-.4-1.2-.4-.6-1.1-.8-2.1-.8-.7 0-1.3.2-1.8.6-.4.4-.7.9-.7 1.5 0 .5.2.9.7 1.2.3.2.7.3 1.2.5l.9.2c.5.1.8.2.9.3.2.1.4.4.4.6 0 .4-.2.6-.5.8s-.7.3-1.1.3c-.7 0-1.2-.2-1.4-.5-.2-.2-.2-.5-.3-.8h-1zm-3.6 2h1.1v-3.7c0-.5.1-.9.4-1.2s.7-.5 1.2-.5h.2.2v-1.1c-.1 0-.2 0-.2 0h-.1c-.4 0-.8.2-1.1.5s-.5.6-.6.8v-1.1h-1v6.3zm-6.1-3.7c0-.5.2-1 .5-1.4s.7-.5 1.2-.5c.7 0 1.2.3 1.5.8.2.3.3.7.3 1.1zm1.9-2.9c-.9 0-1.6.3-2.2 1-.6.6-.8 1.5-.8 2.5s.3 1.9.8 2.4c.6.6 1.2.9 2 .9.3 0 .6 0 .9-.1.5-.1.9-.3 1.2-.6.2-.2.4-.4.5-.7.2-.3.3-.6.3-.8h-1.1c-.1.3-.2.5-.4.8-.3.4-.8.6-1.3.6-.6 0-1-.2-1.3-.6s-.4-.9-.5-1.6h4.7c0-.6 0-1.1-.1-1.4-.1-.4-.2-.8-.4-1.1s-.5-.6-1-.8c-.5-.4-.9-.5-1.3-.5zm-7.2.1c-.9 0-1.6.3-2 1-.5.7-.7 1.5-.7 2.4 0 1 .3 1.8.8 2.4s1.1.9 1.8.9c.4 0 .8-.1 1.2-.3.3-.2.6-.5.9-.9v.9h1v-8.8h-1v3.3c-.2-.3-.5-.5-.6-.6-.5-.2-.9-.3-1.4-.3zm-1.6 3.3c0-.8.2-1.4.5-1.8s.8-.6 1.3-.6.9.2 1.2.6.5 1 .5 1.8-.2 1.4-.5 1.8-.7.6-1.2.6c-.6 0-1.1-.2-1.4-.7-.3-.4-.4-1-.4-1.7zm-7.5 3.2h1.1v-3.4c0-.4 0-.7.1-1 .1-.2.2-.4.4-.7s.5-.4.8-.5c.2-.1.4-.1.6-.1.5 0 .8.2 1 .6.1.2.2.6.2.9v4h1.1v-4.1c0-.6-.1-1.1-.3-1.5-.3-.6-.9-1-1.8-1-.4 0-.8.1-1.1.2-.3.2-.7.4-1 .8v-.9h-1v6.7zm-6-3.7c0-.5.2-1 .5-1.4s.7-.5 1.2-.5c.7 0 1.2.3 1.5.8.2.3.3.7.3 1.1zm1.8-2.9c-.9 0-1.6.3-2.2 1-.6.6-.8 1.5-.8 2.5s.3 1.9.8 2.4c.6.6 1.2.9 2 .9.3 0 .6 0 .9-.1.5-.1.9-.3 1.2-.6.2-.2.4-.4.5-.7.2-.3.3-.6.3-.8h-1.1c-.1.3-.2.5-.4.8-.3.4-.8.6-1.3.6-.6 0-1-.2-1.3-.6s-.4-.9-.5-1.6h4.7c0-.6 0-1.1-.1-1.4-.1-.4-.2-.8-.4-1.1s-.5-.6-1-.8c-.4-.4-.8-.5-1.3-.5zm-5.8.2h-.9v.8h.9v4.2c0 .4.1.7.3 1s.5.4 1 .4h.4c.1 0 .3 0 .4-.1v-.9h-.2-.2c-.2 0-.3 0-.4-.1-.2-.1-.2-.2-.2-.4v-4.1h1v-.9h-1v-1.8h-1.1zm-7 6.4h1.1v-3.4c0-.4 0-.7.1-1 .1-.2.2-.4.4-.7s.5-.4.8-.5c.2-.1.4-.1.6-.1.5 0 .8.2 1 .6.1.2.2.6.2.9v4h1.1v-4.1c0-.6-.1-1.1-.3-1.5-.3-.6-.9-1-1.8-1-.4 0-.8.1-1.1.2-.3.2-.7.4-1 .8v-.9h-1v6.7zm-4.3-6.6c-.9 0-1.6.3-2.2 1-.5.6-.8 1.5-.8 2.6 0 1 .3 1.8.8 2.4s1.2.9 2.1.9c1 0 1.8-.3 2.3-1s.7-1.5.7-2.6-.3-1.9-.8-2.4-1.3-.9-2.1-.9zm0 5.9c-.6 0-1.1-.2-1.4-.7s-.4-1-.4-1.7.1-1.3.4-1.8.8-.8 1.4-.8c.7 0 1.2.3 1.5.9.2.4.3.9.3 1.5 0 .7-.1 1.3-.4 1.8-.2.5-.7.8-1.4.8zm-7.6-8.4c-1.3 0-2.3.5-3 1.4-.7.8-1 1.9-1 3.2 0 1.7.5 3 1.4 3.8.7.6 1.5.9 2.5.9 1.2 0 2.1-.4 2.8-1.1.6-.6.9-1.4 1-2.3h-1.2c-.1.6-.3 1-.5 1.4-.5.7-1.1 1-2 1s-1.6-.3-2.1-1c-.5-.6-.7-1.5-.7-2.5 0-1.3.3-2.2.8-2.8s1.2-.9 2.1-.9c.7 0 1.2.2 1.6.5s.6.8.8 1.3h1.2c-.1-.7-.4-1.4-1-2s-1.6-.9-2.7-.9z" fill="#333"/><path d="m364 21.6c0 .6.2 1.2.6 1.6s1.1.6 2.1.6c.9 0 1.6-.2 2-.6s.7-.9.7-1.5-.2-1-.6-1.3c-.3-.2-.8-.4-1.6-.5l-.7-.2c-.3-.1-.6-.2-.7-.3-.3-.2-.4-.4-.4-.7s.1-.5.3-.6.5-.2.9-.2c.6 0 1.1.1 1.3.4.2.2.2.4.3.7h1c0-.4-.1-.8-.4-1.2-.4-.6-1.1-.8-2.1-.8-.7 0-1.3.2-1.8.6-.4.4-.7.9-.7 1.5 0 .5.2.9.7 1.2.3.2.7.3 1.2.5l.9.2c.5.1.8.2.9.3.2.1.4.4.4.6 0 .4-.2.6-.5.8s-.7.3-1.1.3c-.7 0-1.2-.2-1.4-.5-.2-.2-.2-.5-.3-.8h-1zm-3.7 2h1.1v-3.7c0-.5.1-.9.4-1.2s.7-.5 1.2-.5h.2.2v-1.1c-.1 0-.2 0-.2 0h-.1c-.4 0-.8.2-1.1.5s-.5.6-.6.8v-1.1h-1v6.3zm-6-3.7c0-.5.2-1 .5-1.4s.7-.5 1.2-.5c.7 0 1.2.3 1.5.8.2.3.3.7.3 1.1zm1.8-2.9c-.9 0-1.6.3-2.2 1-.6.6-.8 1.5-.8 2.5s.3 1.9.8 2.4c.6.6 1.2.9 2 .9.3 0 .6 0 .9-.1.5-.1.9-.3 1.2-.6.2-.2.4-.4.5-.7.2-.3.3-.6.3-.8h-1.1c-.1.3-.2.5-.4.8-.3.4-.8.6-1.3.6-.6 0-1-.2-1.3-.6s-.4-.9-.5-1.6h4.7c0-.6 0-1.1-.1-1.4-.1-.4-.2-.8-.4-1.1s-.5-.6-1-.8c-.4-.4-.8-.5-1.3-.5zm-7.2.1c-.9 0-1.6.3-2 1-.5.7-.7 1.5-.7 2.4 0 1 .3 1.8.8 2.4s1.1.9 1.8.9c.4 0 .8-.1 1.2-.3.3-.2.6-.5.9-.9v.9h1v-8.8h-1v3.3c-.2-.3-.5-.5-.6-.6-.5-.2-.9-.3-1.4-.3zm-1.6 3.3c0-.8.2-1.4.5-1.8s.8-.6 1.3-.6.9.2 1.2.6.5 1 .5 1.8-.2 1.4-.5 1.8-.7.6-1.2.6c-.6 0-1.1-.2-1.4-.7-.2-.4-.4-1-.4-1.7zm-5.7-.5c-.6.1-1.1.3-1.5.6s-.6.8-.6 1.4c0 .5.2 1 .6 1.4s.9.5 1.5.5c.5 0 .9-.1 1.4-.3s.7-.5.9-.7c0 .3.1.5.2.6.2.3.4.4.8.4h.4c.1 0 .2 0 .4-.1v-.8h-.2-.2c-.1 0-.2 0-.3-.1s-.1-.2-.1-.3v-3.7c0-.6-.2-1.1-.7-1.3-.5-.3-1.1-.4-1.8-.4-.6 0-1.2.2-1.7.5s-.7.9-.8 1.7h1c0-.3.1-.6.3-.8.2-.3.6-.5 1.2-.5.5 0 .9.1 1.1.2.3.2.4.4.4.8 0 .2 0 .3-.1.4-.1.2-.2.3-.5.3zm-.9 2c0-.4.2-.7.5-.9.2-.1.5-.2.9-.2l.7-.1c.2 0 .4-.1.6-.1.2-.1.4-.1.5-.2v.9c0 .7-.3 1.1-.9 1.4-.4.2-.7.3-1.1.3-.3 0-.6-.1-.8-.3-.3-.3-.4-.5-.4-.8zm-6.9-2c0-.5.2-1 .5-1.4s.7-.5 1.2-.5c.7 0 1.2.3 1.5.8.2.3.3.7.3 1.1zm1.9-2.9c-.9 0-1.6.3-2.2 1-.6.6-.8 1.5-.8 2.5s.3 1.9.8 2.4c.6.6 1.2.9 2 .9.3 0 .6 0 .9-.1.5-.1.9-.3 1.2-.6.2-.2.4-.4.5-.7.2-.3.3-.6.3-.8h-1.1c-.1.3-.2.5-.4.8-.3.4-.8.6-1.3.6-.6 0-1-.2-1.3-.6s-.4-.9-.5-1.6h4.7c0-.6 0-1.1-.1-1.4-.1-.4-.2-.8-.4-1.1s-.5-.6-1-.8c-.4-.4-.9-.5-1.3-.5zm-9.3 6.6h5.6v-1h-4.4v-7.7h-1.2z" fill="#333"/><path d="m236.3 6.3c0 .5-.1 1-.3 1.4-.3.7-.9 1-1.6 1-.5 0-.9-.2-1.2-.6s-.4-.9-.4-1.6c0-.6.1-1.1.2-1.5.3-.7.8-1.1 1.5-1.1.5 0 .9.2 1.2.6.4.5.6 1.1.6 1.8zm-2-3.2c-.7 0-1.4.3-1.9.9s-.8 1.4-.8 2.5.3 2 .8 2.4c.5.5 1.1.7 1.8.7.5 0 .9-.1 1.2-.2.3-.2.6-.4.8-.7 0 .9-.1 1.5-.2 1.8-.3.6-.8.9-1.6.9-.5 0-.9-.1-1.1-.4-.2-.2-.3-.4-.3-.7h-1.1c.1.7.3 1.1.8 1.5.5.3 1 .5 1.7.5 1.2 0 2.1-.4 2.5-1.3.2-.5.4-1.1.4-1.9v-5.9h-1v.8c-.2-.3-.4-.5-.6-.6-.4-.2-.9-.3-1.4-.3zm-9 6.5h1.1v-3.4c0-.4 0-.7.1-1 .1-.2.2-.4.4-.7s.5-.4.8-.5c.2-.1.4-.1.6-.1.5 0 .8.2 1 .6.1.2.2.6.2.9v4h1.1v-3.9c0-.6-.1-1.1-.3-1.5-.3-.6-.9-1-1.8-1-.4 0-.8.1-1.1.2-.3.2-.7.4-1 .8v-.8h-1v6.4zm-4.3-6.6c-.9 0-1.6.3-2.2 1-.5.6-.8 1.5-.8 2.6 0 1 .3 1.8.8 2.4s1.2.9 2.1.9c1 0 1.8-.3 2.3-1s.7-1.5.7-2.6-.3-1.9-.8-2.4-1.2-.9-2.1-.9zm0 5.9c-.6 0-1.1-.2-1.4-.7s-.4-1-.4-1.7.1-1.3.4-1.8.8-.8 1.4-.8c.7 0 1.2.3 1.5.9.2.4.3.9.3 1.5 0 .7-.1 1.3-.4 1.8-.2.5-.7.8-1.4.8zm-6.6.7h1.1v-3.7c0-.5.1-.9.4-1.2s.7-.5 1.2-.5h.2.2v-1.1c-.1 0-.2 0-.2 0h-.1c-.4 0-.8.2-1.1.5s-.5.6-.6.8v-1.2h-1v6.4zm-3.2-6.4h-.9v.8h.9v4.2c0 .4.1.7.3 1s.5.4 1 .4h.4c.1 0 .3 0 .4-.1v-.8h-.2-.2c-.2 0-.3 0-.4-.1-.2-.1-.2-.2-.2-.4v-4.2h1v-.8h-1v-1.8h-1.1zm-8.6 3.5c0 .9.3 1.7.9 2.3s1.4.8 2.5.8c.9 0 1.7-.2 2.4-.6s1-1.1 1-2.1c0-.8-.3-1.4-.8-1.8-.3-.2-.8-.4-1.3-.6l-1.2-.3c-.8-.2-1.3-.4-1.5-.5-.3-.2-.5-.5-.5-.9s.1-.7.4-1 .8-.4 1.5-.4c.8 0 1.4.2 1.8.7.2.3.3.6.4 1.1h1.1c0-1-.3-1.7-.9-2.1s-1.4-.7-2.3-.7c-1 0-1.7.3-2.3.8-.5.5-.8 1.2-.8 1.9s.3 1.3.8 1.6c.3.2.8.4 1.6.6l1.2.3c.6.1 1.1.3 1.4.5s.4.5.4 1c0 .6-.3 1.1-1 1.3-.4.1-.7.2-1.2.2-1 0-1.6-.3-2-.9-.2-.3-.3-.7-.3-1.2z" fill="#333"/><path d="m245 21.6c0 .6.2 1.2.6 1.6s1.1.6 2.1.6c.9 0 1.6-.2 2-.6s.7-.9.7-1.5-.2-1-.6-1.3c-.3-.2-.8-.4-1.6-.5l-.7-.2c-.3-.1-.6-.2-.7-.3-.3-.2-.4-.4-.4-.7s.1-.5.3-.6.5-.2.9-.2c.6 0 1.1.1 1.3.4.2.2.2.4.3.7h1c0-.4-.1-.8-.4-1.2-.4-.6-1.1-.8-2.1-.8-.7 0-1.3.2-1.8.6-.4.4-.7.9-.7 1.5 0 .5.2.9.7 1.2.3.2.7.3 1.2.5l.9.2c.5.1.8.2.9.3.2.1.4.4.4.6 0 .4-.2.6-.5.8s-.7.3-1.1.3c-.7 0-1.2-.2-1.4-.5-.2-.2-.2-.5-.3-.8h-1zm-3.7 2h1.1v-3.7c0-.5.1-.9.4-1.2s.7-.5 1.2-.5h.2.2v-1.1c-.1 0-.2 0-.2 0h-.1c-.4 0-.8.2-1.1.5s-.5.6-.6.8v-1.1h-1v6.3zm-6-3.7c0-.5.2-1 .5-1.4s.7-.5 1.2-.5c.7 0 1.2.3 1.5.8.2.3.3.7.3 1.1zm1.8-2.9c-.9 0-1.6.3-2.2 1-.6.6-.8 1.5-.8 2.5s.3 1.9.8 2.4c.6.6 1.2.9 2 .9.3 0 .6 0 .9-.1.5-.1.9-.3 1.2-.6.2-.2.4-.4.5-.7.2-.3.3-.6.3-.8h-1.1c-.1.3-.2.5-.4.8-.3.4-.8.6-1.3.6-.6 0-1-.2-1.3-.6s-.4-.9-.5-1.6h4.7c0-.6 0-1.1-.1-1.4-.1-.4-.2-.8-.4-1.1s-.5-.6-1-.8c-.4-.4-.8-.5-1.3-.5zm-12.8 6.6h1.1v-3.4c0-.8.2-1.4.5-1.7s.7-.5 1.1-.5.8.1.9.4c.1.2.2.5.2 1v4.2h1.1v-3.7c0-.7.2-1.1.5-1.4s.7-.4 1.1-.4c.3 0 .6.1.8.2.2.2.3.5.3.9v4.5h1.1v-4.3c0-.6-.1-1-.3-1.4-.3-.6-.9-.9-1.8-.9-.4 0-.8.1-1.1.2-.3.2-.6.4-.8.8-.1-.3-.3-.5-.5-.6-.3-.3-.7-.4-1.2-.4s-.9.1-1.2.4c-.2.1-.4.4-.7.7v-.9h-1.1zm-4.1 0h1.1v-3.7c0-.5.1-.9.4-1.2s.7-.5 1.2-.5h.2.2v-1.1c-.1 0-.2 0-.2 0h-.1c-.4 0-.8.2-1.1.5s-.5.6-.6.8v-1.1h-1v6.3zm-4.3-6.6c-.9 0-1.6.3-2.2 1-.5.6-.8 1.5-.8 2.6 0 1 .3 1.8.8 2.4s1.2.9 2.1.9c1 0 1.8-.3 2.3-1s.7-1.5.7-2.6-.3-1.9-.8-2.4-1.2-.9-2.1-.9zm0 5.9c-.6 0-1.1-.2-1.4-.7s-.4-1-.4-1.7.1-1.3.4-1.8.8-.8 1.4-.8c.7 0 1.2.3 1.5.9.2.4.3.9.3 1.5 0 .7-.1 1.3-.4 1.8-.2.5-.7.8-1.4.8zm-5.7-6.7v1h-.9v.8h.9v5.5h1.1v-5.5h1.1v-.8h-1.1c0-.7 0-1.1.1-1.3s.3-.3.6-.3h.1.2v-1c-.1 0-.2 0-.2 0h-.2c-.7 0-1.2.2-1.5.5-.1.3-.1.6-.2 1.1zm-4.3 7.4h1.1v-3.7c0-.5.1-.9.4-1.2s.7-.5 1.2-.5h.2.2v-1.1c-.1 0-.2 0-.2 0h-.1c-.4 0-.8.2-1.1.5s-.5.6-.6.8v-1.1h-1v6.3zm-6-3.7c0-.5.2-1 .5-1.4s.7-.5 1.2-.5c.7 0 1.2.3 1.5.8.2.3.3.7.3 1.1zm1.8-2.9c-.9 0-1.6.3-2.2 1-.6.6-.8 1.5-.8 2.5s.3 1.9.8 2.4c.6.6 1.2.9 2 .9.3 0 .6 0 .9-.1.5-.1.9-.3 1.2-.6.2-.2.4-.4.5-.7.2-.3.3-.6.3-.8h-1.1c-.1.3-.2.5-.4.8-.3.4-.8.6-1.3.6-.6 0-1-.2-1.3-.6s-.4-.9-.5-1.6h4.7c0-.6 0-1.1-.1-1.4-.1-.4-.2-.8-.4-1.1s-.5-.6-1-.8c-.4-.4-.8-.5-1.3-.5zm-5.2.3c0 .6-.2 1-.5 1.2s-.8.3-1.3.3h-2.4v-3h2.4c.5 0 .8.1 1.1.2.5.2.7.7.7 1.3zm-5.3 6.3h1.2v-3.7h2.7c.9 0 1.5-.3 2-.8.4-.5.6-1.1.6-1.8 0-.8-.2-1.4-.7-1.9-.5-.4-1.1-.7-1.9-.7h-3.9z" fill="#333"/><path d="m258.4 423.8-1.7-5.2h-1.2l2.4 6.6c-.1.1-.1.4-.3.7-.1.3-.2.5-.2.5-.1.1-.1.2-.2.2-.1.1-.2.1-.4.1h-.2c-.1 0-.2 0-.4-.1v1c.1 0 .2.1.3.1h.3c.6 0 1.1-.2 1.3-.5.3-.4.7-1.4 1.3-3 .3-.7.6-1.6 1-2.7.5-1.5.9-2.4 1-2.8h-1.2zm-4.9-2.1c0 .5-.1 1-.3 1.4-.3.7-.9 1-1.6 1-.5 0-.9-.2-1.2-.6s-.4-.9-.4-1.6c0-.6.1-1.1.2-1.5.3-.7.8-1.1 1.5-1.1.5 0 .9.2 1.2.6.4.4.6 1 .6 1.8zm-1.9-3.3c-.7 0-1.4.3-1.9.9s-.8 1.4-.8 2.5.3 2 .8 2.4c.5.5 1.1.7 1.8.7.5 0 .9-.1 1.2-.2.3-.2.6-.4.8-.7 0 .9-.1 1.5-.2 1.8-.3.6-.8.9-1.6.9-.5 0-.9-.1-1.1-.4-.2-.2-.3-.4-.3-.7h-1.1c.1.7.3 1.1.8 1.5.5.3 1 .5 1.7.5 1.2 0 2.1-.4 2.5-1.3.2-.5.4-1.1.4-1.9v-5.8h-1v.8c-.2-.3-.4-.5-.6-.6-.5-.2-.9-.4-1.4-.4zm-8.3 2.8c0-.5.2-1 .5-1.4s.7-.5 1.2-.5c.7 0 1.2.3 1.5.8.2.3.3.7.3 1.1zm1.9-2.8c-.9 0-1.6.3-2.2 1-.6.6-.8 1.5-.8 2.5s.3 1.9.8 2.4c.6.6 1.2.9 2 .9.3 0 .6 0 .9-.1.5-.1.9-.3 1.2-.6.2-.2.4-.4.5-.7.2-.3.3-.6.3-.8h-1.1c-.1.3-.2.5-.4.8-.3.4-.8.6-1.3.6-.6 0-1-.2-1.3-.6s-.4-.9-.5-1.6h4.7c0-.6 0-1.1-.1-1.4-.1-.4-.2-.8-.4-1.1s-.5-.6-1-.8c-.5-.4-.9-.5-1.3-.5zm-5.9.1h-.9v.9h.9v4.2c0 .4.1.7.3 1s.5.4 1 .4h.4c.1 0 .3 0 .4-.1v-.9h-.2-.2c-.2 0-.3 0-.4-.1-.2-.1-.2-.2-.2-.4v-4.2h1v-.9h-1v-1.8h-1.1zm-5.3 2.8c-.6.1-1.1.3-1.5.6s-.6.8-.6 1.4c0 .5.2 1 .6 1.4s.9.5 1.5.5c.5 0 .9-.1 1.4-.3s.7-.5.9-.7c0 .3.1.5.2.6.2.3.4.4.8.4h.4c.1 0 .2 0 .4-.1v-.8h-.2-.2c-.1 0-.2 0-.3-.1s-.1-.2-.1-.3v-3.7c0-.6-.2-1.1-.7-1.3-.5-.3-1.1-.4-1.8-.4-.6 0-1.2.2-1.7.5s-.7.9-.8 1.7h1c0-.3.1-.6.3-.8.2-.3.6-.5 1.2-.5.5 0 .9.1 1.1.2.3.2.4.4.4.8 0 .2 0 .3-.1.4-.1.2-.2.3-.5.3zm-.9 1.9c0-.4.2-.7.5-.9.2-.1.5-.2.9-.2l.7-.1c.2 0 .4-.1.6-.1.2-.1.4-.1.5-.2v.9c0 .7-.3 1.1-.9 1.4-.4.2-.7.3-1.1.3-.3 0-.6-.1-.8-.3-.3-.2-.4-.4-.4-.8zm-4.9 1.8h1.1v-3.7c0-.5.1-.9.4-1.2s.7-.5 1.2-.5h.2.2v-1.1c-.1 0-.2 0-.2 0h-.1c-.4 0-.8.2-1.1.5s-.5.6-.6.8v-1.1h-1v6.3zm-3.2-6.5h-.9v.9h.9v4.2c0 .4.1.7.3 1s.5.4 1 .4h.4c.1 0 .3 0 .4-.1v-.9h-.2-.2c-.2 0-.3 0-.4-.1-.2-.1-.2-.2-.2-.4v-4.2h1v-.9h-1v-1.8h-1.1zm-8.6 3.6c0 .9.3 1.7.9 2.3s1.4.8 2.5.8c.9 0 1.7-.2 2.4-.6s1-1.1 1-2.1c0-.8-.3-1.4-.8-1.8-.3-.2-.8-.4-1.3-.6l-1.2-.3c-.8-.2-1.3-.4-1.5-.5-.3-.2-.5-.5-.5-.9s.1-.7.4-1 .8-.4 1.5-.4c.8 0 1.4.2 1.8.7.2.3.3.6.4 1.1h1.1c0-1-.3-1.7-.9-2.1s-1.4-.7-2.3-.7c-1 0-1.7.3-2.3.8-.5.5-.8 1.2-.8 1.9s.3 1.3.8 1.6c.3.2.8.4 1.6.6l1.2.3c.6.1 1.1.3 1.4.5s.4.5.4 1c0 .6-.3 1.1-1 1.3-.4.1-.7.2-1.2.2-1 0-1.6-.3-2-.9-.2-.3-.3-.7-.3-1.2z" fill="#333"/><path d="m82.8 425h1v-2.4l.9-.9 2 3.3h1.4l-2.6-4 2.5-2.4h-1.4l-2.8 2.7v-5.1h-1zm-5-3.7c-.6.1-1.1.3-1.5.6s-.6.8-.6 1.4c0 .5.2 1 .6 1.4s.9.5 1.5.5c.5 0 .9-.1 1.4-.3s.7-.5.9-.7c0 .3.1.5.2.6.2.3.4.4.8.4h.4c.1 0 .2 0 .4-.1v-.8h-.2-.2c-.1 0-.2 0-.3-.1s-.1-.2-.1-.3v-3.7c0-.6-.2-1.1-.7-1.3-.5-.3-1.1-.4-1.8-.4-.6 0-1.2.2-1.7.5s-.7.9-.8 1.7h1c0-.3.1-.6.3-.8.2-.3.6-.5 1.2-.5.5 0 .9.1 1.1.2.3.2.4.4.4.8 0 .2 0 .3-.1.4-.1.2-.2.3-.5.3zm-.9 1.9c0-.4.2-.7.5-.9.2-.1.5-.2.9-.2l.7-.1c.2 0 .4-.1.6-.1.2-.1.4-.1.5-.2v.9c0 .7-.3 1.1-.9 1.4-.4.2-.7.3-1.1.3-.3 0-.6-.1-.8-.3-.3-.2-.4-.4-.4-.8zm-6.9-2c0-.5.2-1 .5-1.4s.7-.5 1.2-.5c.7 0 1.2.3 1.5.8.2.3.3.7.3 1.1zm1.9-2.8c-.9 0-1.6.3-2.2 1-.6.6-.8 1.5-.8 2.5s.3 1.9.8 2.4c.6.6 1.2.9 2 .9.3 0 .6 0 .9-.1.5-.1.9-.3 1.2-.6.2-.2.4-.4.5-.7.2-.3.3-.6.3-.8h-1.1c-.1.3-.2.5-.4.8-.3.4-.8.6-1.3.6-.6 0-1-.2-1.3-.6s-.4-.9-.5-1.6h4.7c0-.6 0-1.1-.1-1.4-.1-.4-.2-.8-.4-1.1s-.5-.6-1-.8c-.4-.4-.9-.5-1.3-.5zm-14.6-2.2 2.3 8.8h1.3l2-7.3 2 7.3h1.2l2.3-8.8h-1.3l-1.7 7.2-2-7.2h-1.3l-2 7.1-1.7-7.1z" fill="#333"/><path d="m418.1 421.7c0 .5-.1 1-.3 1.4-.3.7-.9 1-1.6 1-.5 0-.9-.2-1.2-.6s-.4-.9-.4-1.6c0-.6.1-1.1.2-1.5.3-.7.8-1.1 1.5-1.1.5 0 .9.2 1.2.6.5.4.6 1 .6 1.8zm-1.9-3.3c-.7 0-1.4.3-1.9.9s-.8 1.4-.8 2.5.3 2 .8 2.4c.5.5 1.1.7 1.8.7.5 0 .9-.1 1.2-.2.3-.2.6-.4.8-.7 0 .9-.1 1.5-.2 1.8-.3.6-.8.9-1.6.9-.5 0-.9-.1-1.1-.4-.2-.2-.3-.4-.3-.7h-1.1c.1.7.3 1.1.8 1.5.5.3 1 .5 1.7.5 1.2 0 2.1-.4 2.5-1.3.2-.5.4-1.1.4-1.9v-5.8h-1v.8c-.2-.3-.4-.5-.6-.6-.4-.2-.9-.4-1.4-.4zm-9 6.6h1.1v-3.4c0-.4 0-.7.1-1 .1-.2.2-.4.4-.7s.5-.4.8-.5c.2-.1.4-.1.6-.1.5 0 .8.2 1 .6.1.2.2.6.2.9v4h1.1v-4.1c0-.6-.1-1.1-.3-1.5-.3-.6-.9-1-1.8-1-.4 0-.8.1-1.1.2-.3.2-.7.4-1 .8v-.9h-1v6.7zm-4.3-6.6c-.9 0-1.6.3-2.2 1-.5.6-.8 1.5-.8 2.6 0 1 .3 1.8.8 2.4s1.2.9 2.1.9c1 0 1.8-.3 2.3-1s.7-1.5.7-2.6-.3-1.9-.8-2.4-1.3-.9-2.1-.9zm0 5.8c-.6 0-1.1-.2-1.4-.7s-.4-1-.4-1.7.1-1.3.4-1.8.8-.8 1.4-.8c.7 0 1.2.3 1.5.9.2.4.3.9.3 1.5 0 .7-.1 1.3-.4 1.8-.2.6-.7.8-1.4.8zm-6.6.8h1.1v-3.7c0-.5.1-.9.4-1.2s.7-.5 1.2-.5h.2.2v-1.1c-.1 0-.2 0-.2 0h-.1c-.4 0-.8.2-1.1.5s-.5.6-.6.8v-1.1h-1v6.3zm-3.2-6.5h-.9v.9h.9v4.2c0 .4.1.7.3 1s.5.4 1 .4h.4c.1 0 .3 0 .4-.1v-.9h-.2-.2c-.2 0-.3 0-.4-.1-.2-.1-.2-.2-.2-.4v-4.2h1v-.9h-1v-1.8h-1.1zm-8.6 3.6c0 .9.3 1.7.9 2.3s1.4.8 2.5.8c.9 0 1.7-.2 2.4-.6s1-1.1 1-2.1c0-.8-.3-1.4-.8-1.8-.3-.2-.8-.4-1.3-.6l-1.2-.3c-.8-.2-1.3-.4-1.5-.5-.3-.2-.5-.5-.5-.9s.1-.7.4-1 .8-.4 1.5-.4c.8 0 1.4.2 1.8.7.2.3.3.6.4 1.1h1.1c0-1-.3-1.7-.9-2.1s-1.4-.7-2.3-.7c-1 0-1.7.3-2.3.8-.5.5-.8 1.2-.8 1.9s.3 1.3.8 1.6c.3.2.8.4 1.6.6l1.2.3c.6.1 1.1.3 1.4.5s.4.5.4 1c0 .6-.3 1.1-1 1.3-.4.1-.7.2-1.2.2-1 0-1.6-.3-2-.9-.2-.3-.3-.7-.3-1.2z" fill="#333"/><path d="m94.8 421.4h111.1v-.5h-111.1" fill="#666"/><path d="m270.1 421.4h102v-.5h-102" fill="#666"/><path d="m369.6 417.7v6.9l9-3.5z" fill="#666"/><path d="m21.9 383v-145.6h-.5v145.6" fill="#666"/><path d="m21.9 195.9v-135h-.5v135" fill="#666"/><path d="m18.2 63.5h6.9l-3.4-9z" fill="#666"/><path d="m39.6 209h-.9v.9h.9v4.2c0 .4.1.7.3 1s.5.4 1 .4h.4c.1 0 .3 0 .4-.1v-.9h-.2-.2c-.2 0-.3 0-.4-.1-.2-.1-.2-.2-.2-.4v-4.2h1v-.8h-1v-1.8h-1.1zm-7 6.4h1.1v-3.4c0-.4 0-.7.1-1 .1-.2.2-.4.4-.7s.5-.4.8-.5c.2-.1.4-.1.6-.1.5 0 .8.2 1 .6.1.2.2.6.2.9v4h1.1v-4.1c0-.6-.1-1.1-.3-1.5-.3-.6-.9-1-1.8-1-.4 0-.8.1-1.1.2-.3.2-.7.4-1 .8v-.6h-1v6.4zm-6-3.7c0-.5.2-1 .5-1.4s.7-.5 1.2-.5c.7 0 1.2.3 1.5.8.2.3.3.7.3 1.1zm1.8-2.8c-.9 0-1.6.3-2.2 1-.6.6-.8 1.5-.8 2.5s.3 1.9.8 2.4c.6.6 1.2.9 2 .9.3 0 .6 0 .9-.1.5-.1.9-.3 1.2-.6.2-.2.4-.4.5-.7.2-.3.3-.6.3-.8h-1.1c-.1.3-.2.5-.4.8-.3.4-.8.6-1.3.6-.6 0-1-.2-1.3-.6s-.4-.9-.5-1.6h4.7c0-.6 0-1.1-.1-1.4-.1-.4-.2-.8-.4-1.1s-.5-.6-1-.8c-.4-.4-.9-.5-1.3-.5zm-6.7 6.5h1.1v-3.7c0-.5.1-.9.4-1.2s.7-.5 1.2-.5h.2.2v-1.1c-.1 0-.2 0-.2 0h-.1c-.4 0-.8.2-1.1.5s-.5.6-.6.8v-1.2h-1v6.4zm-4.1 0h1.1v-3.7c0-.5.1-.9.4-1.2s.7-.5 1.2-.5h.2.2v-1.1c-.1 0-.2 0-.2 0h-.1c-.4 0-.8.2-1.1.5s-.5.6-.6.8v-1.2h-1v6.4zm-6.9-6.4v4.4c0 .5.1 1 .3 1.3.3.6.9.9 1.8.9.6 0 1.1-.2 1.5-.5.2-.2.4-.4.5-.6v.9h1v-6.4h-1.1v3.1c0 .6-.1 1.1-.2 1.5-.3.7-.8 1-1.5 1-.5 0-.9-.2-1-.6-.1-.2-.2-.5-.2-.8v-4.2zm-5-2.6c-1.3 0-2.3.5-3 1.4-.7.8-1 1.9-1 3.2 0 1.7.5 3 1.4 3.8.7.6 1.5.9 2.5.9 1.2 0 2.1-.4 2.8-1.1.6-.6.9-1.4 1-2.3h-1.2c-.1.6-.3 1-.5 1.4-.5.7-1.1 1-2 1s-1.6-.3-2.1-1c-.5-.6-.7-1.5-.7-2.5 0-1.3.3-2.2.8-2.8s1.2-.9 2.1-.9c.7 0 1.2.2 1.6.5s.6.8.8 1.3h1.2c-.1-.7-.4-1.4-1-2s-1.6-.9-2.7-.9z" fill="#333"/><path d="m39.7 224.7c0 .5-.1 1-.3 1.4-.3.7-.9 1-1.6 1-.5 0-.9-.2-1.2-.6s-.4-.9-.4-1.6c0-.6.1-1.1.2-1.5.3-.7.8-1.1 1.5-1.1.5 0 .9.2 1.2.6.5.4.6 1 .6 1.8zm-1.9-3.3c-.7 0-1.4.3-1.9.9s-.8 1.4-.8 2.5.3 2 .8 2.4c.5.5 1.1.7 1.8.7.5 0 .9-.1 1.2-.2.3-.2.6-.4.8-.7 0 .9-.1 1.5-.2 1.8-.3.6-.8.9-1.6.9-.5 0-.9-.1-1.1-.4-.2-.2-.3-.4-.3-.7h-1.1c.1.7.3 1.1.8 1.5.5.3 1 .5 1.7.5 1.2 0 2.1-.4 2.5-1.3.2-.5.4-1.1.4-1.9v-5.8h-1v.8c-.2-.3-.4-.5-.6-.6-.5-.3-.9-.4-1.4-.4zm-9.1 6.5h1.1v-3.4c0-.4 0-.7.1-1 .1-.2.2-.4.4-.7s.5-.4.8-.5c.2-.1.4-.1.6-.1.5 0 .8.2 1 .6.1.2.2.6.2.9v4h1.1v-4.1c0-.6-.1-1.1-.3-1.5-.3-.6-.9-1-1.8-1-.4 0-.8.1-1.1.2-.3.2-.7.4-1 .8v-.9h-1v6.7zm-2.7-7.5h1.1v-1.2h-1.1zm0 7.5h1.1v-6.4h-1.1zm-4 0h1v-3.7c0-.5.1-.9.4-1.2s.7-.5 1.2-.5h.2.2v-1.1c-.1 0-.2 0-.2 0h-.1c-.4 0-.8.2-1.1.5s-.5.6-.6.8v-1.1h-1zm-6.1-3.7c0-.5.2-1 .5-1.4s.7-.5 1.2-.5c.7 0 1.2.3 1.5.8.2.3.3.7.3 1.1zm1.9-2.8c-.9 0-1.6.3-2.2 1-.6.6-.8 1.5-.8 2.5s.3 1.9.8 2.4c.6.6 1.2.9 2 .9.3 0 .6 0 .9-.1.5-.1.9-.3 1.2-.6.2-.2.4-.4.5-.7.2-.3.3-.6.3-.8h-1.1c-.1.3-.2.5-.4.8-.3.4-.8.6-1.3.6-.6 0-1-.2-1.3-.6s-.4-.9-.5-1.6h4.7c0-.6 0-1.1-.1-1.4-.1-.4-.2-.8-.4-1.1s-.5-.6-1-.8c-.5-.4-.9-.5-1.3-.5zm-5.8-.8v1h-.9v.8h.9v5.5h1v-5.5h1.1v-.8h-1.1c0-.7 0-1.1.1-1.3s.3-.3.6-.3h.1.2v-1c-.1 0-.2 0-.2 0h-.2c-.7 0-1.2.2-1.5.5 0 .3-.1.6-.1 1.1zm-3.2 0v1h-.9v.8h.9v5.5h1.1v-5.5h1.1v-.8h-1.1c0-.7 0-1.1.1-1.3s.3-.3.6-.3h.1.2v-1c-.1 0-.2 0-.2 0h-.2c-.7 0-1.2.2-1.5.5-.1.3-.2.6-.2 1.1zm-4.5.7c-.9 0-1.6.3-2.2 1-.5.6-.8 1.5-.8 2.6 0 1 .3 1.8.8 2.4s1.2.9 2.1.9c1 0 1.8-.3 2.3-1s.7-1.5.7-2.6-.3-1.9-.8-2.4-1.3-.9-2.1-.9zm-.1 5.9c-.6 0-1.1-.2-1.4-.7s-.4-1-.4-1.7.1-1.3.4-1.8.8-.8 1.4-.8c.7 0 1.2.3 1.5.9.2.4.3.9.3 1.5 0 .7-.1 1.3-.4 1.8-.2.6-.7.8-1.4.8z" fill="#333"/><path d="m32 398.5h1v-2.4l.9-.9 2 3.3h1.4l-2.6-4 2.5-2.4h-1.4l-2.8 2.7v-5.1h-1zm-5.1-3.7c-.6.1-1.1.3-1.5.6s-.6.8-.6 1.4c0 .5.2 1 .6 1.4s.9.5 1.5.5c.5 0 .9-.1 1.4-.3s.7-.5.9-.7c0 .3.1.5.2.6.2.3.4.4.8.4h.4c.1 0 .2 0 .4-.1v-.8h-.2-.2c-.1 0-.2 0-.3-.1s-.1-.2-.1-.3v-3.7c0-.6-.2-1.1-.7-1.3-.5-.3-1.1-.4-1.8-.4-.6 0-1.2.2-1.7.5s-.7.9-.8 1.7h1c0-.3.1-.6.3-.8.2-.3.6-.5 1.2-.5.5 0 .9.1 1.1.2.3.2.4.4.4.8 0 .2 0 .3-.1.4-.1.2-.2.3-.5.3zm-.9 2c0-.4.2-.7.5-.9.2-.1.5-.2.9-.2l.7-.1c.2 0 .4-.1.6-.1.2-.1.4-.1.5-.2v.9c0 .7-.3 1.1-.9 1.4-.4.2-.7.3-1.1.3-.3 0-.6-.1-.8-.3-.3-.3-.4-.5-.4-.8zm-6.8-2c0-.5.2-1 .5-1.4s.7-.5 1.2-.5c.7 0 1.2.3 1.5.8.2.3.3.7.3 1.1zm1.8-2.9c-.9 0-1.6.3-2.2 1-.6.6-.8 1.5-.8 2.5s.3 1.9.8 2.4c.6.6 1.2.9 2 .9.3 0 .6 0 .9-.1.5-.1.9-.3 1.2-.6.2-.2.4-.4.5-.7.2-.3.3-.6.3-.8h-1.1c-.1.3-.2.5-.4.8-.3.4-.8.6-1.3.6-.6 0-1-.2-1.3-.6s-.4-.9-.5-1.6h4.7c0-.6 0-1.1-.1-1.4-.1-.4-.2-.8-.4-1.1s-.5-.6-1-.8c-.4-.4-.8-.5-1.3-.5zm-14.5-2.2 2.3 8.8h1.2l2-7.3 2 7.3h1.2l2.3-8.8h-1.3l-1.7 7.2-2-7.2h-1.3l-2 7.1-1.7-7.1z" fill="#333"/><path d="m37.5 43.8c0 .5-.1 1-.3 1.4-.3.7-.9 1-1.6 1-.5 0-.9-.2-1.2-.6-.2-.3-.4-.9-.4-1.6 0-.6.1-1.1.2-1.5.3-.7.8-1.1 1.5-1.1.5 0 .9.2 1.2.6.5.4.6 1 .6 1.8zm-1.9-3.3c-.7 0-1.4.3-1.9.9s-.8 1.4-.8 2.5.3 2 .8 2.4c.5.5 1.1.7 1.8.7.5 0 .9-.1 1.2-.2.3-.2.6-.4.8-.7 0 .9-.1 1.5-.2 1.8-.3.6-.8.9-1.6.9-.5 0-.9-.1-1.1-.4-.2-.2-.3-.4-.3-.7h-1.1c.1.7.3 1.1.8 1.5.5.3 1 .5 1.7.5 1.2 0 2.1-.4 2.5-1.3.2-.5.4-1.1.4-1.9v-5.8h-1v.8c-.2-.3-.4-.5-.6-.6-.5-.3-.9-.4-1.4-.4zm-9.1 6.5h1.1v-3.4c0-.4 0-.7.1-1 .1-.2.2-.4.4-.7s.5-.4.8-.5c.2-.1.4-.1.6-.1.5 0 .8.2 1 .6.1.2.2.6.2.9v4h1.1v-4.1c0-.6-.1-1.1-.3-1.5-.3-.6-.9-1-1.8-1-.4 0-.8.1-1.1.2-.3.2-.7.4-1 .8v-.9h-1v6.7zm-4.2-6.6c-.9 0-1.6.3-2.2 1-.5.6-.8 1.5-.8 2.6 0 1 .3 1.8.8 2.4s1.2.9 2.1.9c1 0 1.8-.3 2.3-1s.7-1.5.7-2.6-.3-1.9-.8-2.4-1.3-.9-2.1-.9zm0 5.9c-.6 0-1.1-.2-1.4-.7s-.4-1-.4-1.7.1-1.3.4-1.8.8-.8 1.4-.8c.7 0 1.2.3 1.5.9.2.4.3.9.3 1.5 0 .7-.1 1.3-.4 1.8s-.7.8-1.4.8zm-6.6.7h1.1v-3.7c0-.5.1-.9.4-1.2s.7-.5 1.2-.5h.2.2v-1.1c-.1 0-.2 0-.2 0h-.1c-.4 0-.8.2-1.1.5s-.5.6-.6.8v-1.1h-1v6.3zm-3.2-6.4h-.9v.9h.9v4.2c0 .4.1.7.3 1s.5.4 1 .4h.4c.1 0 .3 0 .4-.1v-.9h-.2-.2c-.2 0-.3 0-.4-.1-.2-.1-.2-.2-.2-.4v-4.2h1v-.9h-1v-1.8h-1.1zm-8.6 3.6c0 .9.3 1.7.9 2.3s1.4.8 2.5.8c.9 0 1.7-.2 2.4-.6s1-1.1 1-2.1c0-.8-.3-1.4-.8-1.8-.3-.2-.8-.4-1.3-.6l-1.2-.3c-.8-.2-1.3-.4-1.5-.5-.3-.2-.5-.5-.5-.9s.1-.7.4-1c.2-.3.7-.5 1.4-.5.8 0 1.4.3 1.8.7.2.3.3.6.4 1.1h1.1c0-1-.3-1.7-.9-2.1-.7-.5-1.5-.7-2.4-.7-1 0-1.7.3-2.3.8-.5.5-.8 1.2-.8 1.9s.3 1.3.8 1.6c.3.2.8.4 1.6.6l1.2.3c.6.1 1.1.3 1.4.5s.4.5.4 1c0 .6-.3 1.1-1 1.3-.4.1-.7.2-1.2.2-1 0-1.6-.3-2-.9-.2-.2-.3-.6-.3-1.1z" fill="#333"/><path d="m57.3 344.1h86v-.5h-86" fill="#666"/><path d="m140.8 340.4v6.9l9-3.4z" fill="#666"/><path d="m143.4 330c0-.5.2-1 .5-1.4s.7-.5 1.2-.5c.7 0 1.2.3 1.5.8.2.3.3.7.3 1.1zm1.8-2.9c-.9 0-1.6.3-2.2 1-.6.6-.8 1.5-.8 2.5s.3 1.9.8 2.4c.6.6 1.2.9 2 .9.3 0 .6 0 .9-.1.5-.1.9-.3 1.2-.6.2-.2.4-.4.5-.7.2-.3.3-.6.3-.8h-1.1c-.1.3-.2.5-.4.8-.3.4-.8.6-1.3.6-.6 0-1-.2-1.3-.6s-.4-.9-.5-1.6h4.7c0-.6 0-1.1-.1-1.4-.1-.4-.2-.8-.4-1.1s-.5-.6-1-.8c-.4-.4-.9-.5-1.3-.5zm-6.3 0c-.8 0-1.5.3-2.1.9s-.8 1.5-.8 2.6c0 .9.2 1.7.7 2.3s1.2.9 2 .9c.7 0 1.4-.2 1.8-.6.5-.4.8-1 .9-1.9h-1c-.1.5-.3.8-.5 1.1-.3.3-.6.4-1.1.4-.6 0-1-.2-1.3-.7-.3-.4-.4-1-.4-1.6s.1-1.2.3-1.6c.3-.7.8-1 1.5-1 .5 0 .9.1 1.1.4s.4.6.4 1h1c-.1-.9-.4-1.5-.8-1.8-.4-.2-1-.4-1.7-.4zm-9.3 6.6h1.1v-3.4c0-.4 0-.7.1-1 .1-.2.2-.4.4-.7s.5-.4.8-.5c.2-.1.4-.1.6-.1.5 0 .8.2 1 .6.1.2.2.6.2.9v4h1.1v-4.1c0-.6-.1-1.1-.3-1.5-.3-.6-.9-1-1.8-1-.4 0-.8.1-1.1.2-.3.2-.7.4-1 .8v-.9h-1v6.7zm-6-3.7c0-.5.2-1 .5-1.4s.7-.5 1.2-.5c.7 0 1.2.3 1.5.8.2.3.3.7.3 1.1zm1.8-2.9c-.9 0-1.6.3-2.2 1-.6.6-.8 1.5-.8 2.5s.3 1.9.8 2.4c.6.6 1.2.9 2 .9.3 0 .6 0 .9-.1.5-.1.9-.3 1.2-.6.2-.2.4-.4.5-.7.2-.3.3-.6.3-.8h-1.1c-.1.3-.2.5-.4.8-.3.4-.8.6-1.3.6-.6 0-1-.2-1.3-.6s-.4-.9-.5-1.6h4.7c0-.6 0-1.1-.1-1.4-.1-.4-.2-.8-.4-1.1s-.5-.6-1-.8c-.4-.4-.8-.5-1.3-.5zm-9.1 4.6c0 .6.2 1.2.6 1.6s1.1.6 2.1.6c.9 0 1.6-.2 2-.6s.7-.9.7-1.5-.2-1-.6-1.3c-.3-.2-.8-.4-1.6-.5l-.7-.2c-.3-.1-.6-.2-.7-.3-.3-.2-.4-.4-.4-.7s.1-.5.3-.6.5-.2.9-.2c.6 0 1.1.1 1.3.4.2.2.2.4.3.7h1c0-.4-.1-.8-.4-1.2-.4-.6-1.1-.8-2.1-.8-.7 0-1.3.2-1.8.6-.4.4-.7.9-.7 1.5 0 .5.2.9.7 1.2.3.2.7.3 1.2.5l.9.2c.5.1.8.2.9.3.2.1.4.4.4.6 0 .4-.2.6-.5.8s-.7.3-1.1.3c-.7 0-1.2-.2-1.4-.5-.2-.2-.2-.5-.3-.8h-1zm-5.6-1.7c0-.5.2-1 .5-1.4s.7-.5 1.2-.5c.7 0 1.2.3 1.5.8.2.3.3.7.3 1.1zm1.8-2.9c-.9 0-1.6.3-2.2 1-.6.6-.8 1.5-.8 2.5s.3 1.9.8 2.4c.6.6 1.2.9 2 .9.3 0 .6 0 .9-.1.5-.1.9-.3 1.2-.6.2-.2.4-.4.5-.7.2-.3.3-.6.3-.8h-1.1c-.1.3-.2.5-.4.8-.3.4-.8.6-1.3.6-.6 0-1-.2-1.3-.6s-.4-.9-.5-1.6h4.7c0-.6 0-1.1-.1-1.4-.1-.4-.2-.8-.4-1.1s-.5-.6-1-.8c-.4-.4-.8-.5-1.3-.5zm-6.7 6.6h1.1v-3.7c0-.5.1-.9.4-1.2s.7-.5 1.2-.5h.2.2v-1.1c-.1 0-.2 0-.2 0h-.1c-.4 0-.8.2-1.1.5s-.5.6-.6.8v-1.1h-1v6.3zm-6.9 2.5h1.1v-3.2c.2.3.5.5.6.6.3.2.7.3 1.2.3.6 0 1.2-.2 1.6-.6.7-.6 1.1-1.6 1.1-3 0-1-.3-1.8-.8-2.4s-1.1-.8-1.9-.8c-.5 0-.9.1-1.3.4-.3.2-.5.4-.7.7v-.8h-1.1v8.8zm2.8-3.2c-.7 0-1.3-.3-1.5-1-.1-.3-.2-.8-.2-1.3 0-.6.1-1.1.2-1.5.3-.7.8-1.1 1.5-1.1s1.3.4 1.5 1.1c.1.4.2.8.2 1.3 0 .8-.2 1.5-.5 1.9s-.7.6-1.2.6zm-9.3-5.7h-.9v.9h.9v4.2c0 .4.1.7.3 1s.5.4 1 .4h.4c.1 0 .3 0 .4-.1v-.9h-.2-.2c-.2 0-.3 0-.4-.1-.2-.1-.2-.2-.2-.4v-4.2h1v-.9h-1v-1.8h-1.1zm-6.2 2.7c0-.5.2-1 .5-1.4s.7-.5 1.2-.5c.7 0 1.2.3 1.5.8.2.3.3.7.3 1.1zm1.8-2.9c-.9 0-1.6.3-2.2 1-.6.6-.8 1.5-.8 2.5s.3 1.9.8 2.4c.6.6 1.2.9 2 .9.3 0 .6 0 .9-.1.5-.1.9-.3 1.2-.6.2-.2.4-.4.5-.7.2-.3.3-.6.3-.8h-1.1c-.1.3-.2.5-.4.8-.3.4-.8.6-1.3.6-.6 0-1-.2-1.3-.6s-.4-.9-.5-1.6h4.7c0-.6 0-1.1-.1-1.4-.1-.4-.2-.8-.4-1.1s-.5-.6-1-.8c-.4-.4-.9-.5-1.3-.5zm-8.8 6.6h1v-2.4l.9-.9 2 3.3h1.4l-2.6-4 2.5-2.4h-1.4l-2.8 2.7v-5.1h-1zm-4 0h1.1v-3.7c0-.5.1-.9.4-1.2s.7-.5 1.2-.5h.2.2v-1.1c-.1 0-.2 0-.2 0h-.1c-.4 0-.8.2-1.1.5s-.5.6-.6.8v-1.1h-1v6.3zm-5.1-3.7c-.6.1-1.1.3-1.5.6s-.6.8-.6 1.4c0 .5.2 1 .6 1.4s.9.5 1.5.5c.5 0 .9-.1 1.4-.3s.7-.5.9-.7c0 .3.1.5.2.6.2.3.4.4.8.4h.4c.1 0 .2 0 .4-.1v-.8h-.2-.2c-.1 0-.2 0-.3-.1s-.1-.2-.1-.3v-3.7c0-.6-.2-1.1-.7-1.3-.5-.3-1.1-.4-1.8-.4-.6 0-1.2.2-1.7.5s-.7.9-.8 1.7h1c0-.3.1-.6.3-.8.2-.3.6-.5 1.2-.5.5 0 .9.1 1.1.2.3.2.4.4.4.8 0 .2 0 .3-.1.4-.1.2-.2.3-.5.3zm-.9 2c0-.4.2-.7.5-.9.2-.1.5-.2.9-.2l.7-.1c.2 0 .4-.1.6-.1.2-.1.4-.1.5-.2v.9c0 .7-.3 1.1-.9 1.4-.4.2-.7.3-1.1.3-.3 0-.6-.1-.8-.3-.3-.3-.4-.5-.4-.8zm-11 1.7h1.1v-5.2c0-.2 0-.5 0-1 0-.4 0-.8 0-1v-.3l2.5 7.4h1.2l2.5-7.4v1.3.9 5.2h1.1v-8.8h-1.6l-2.5 7.4-2.5-7.4h-1.7v8.9z" fill="#333"/><path d="m266 368.2h1.1v-3.4c0-.4 0-.7.1-1 .1-.2.2-.4.4-.7s.5-.4.8-.5c.2-.1.4-.1.6-.1.5 0 .8.2 1 .6.1.2.2.6.2.9v4h1.1v-4.1c0-.6-.1-1.1-.3-1.5-.3-.6-.9-1-1.8-1-.4 0-.8.1-1.1.2-.3.2-.7.4-1 .8v-.9h-1v6.7zm-4.2-6.6c-.9 0-1.6.3-2.2 1-.5.6-.8 1.5-.8 2.6 0 1 .3 1.8.8 2.4s1.2.9 2.1.9c1 0 1.8-.3 2.3-1s.7-1.5.7-2.6-.3-1.9-.8-2.4-1.3-.9-2.1-.9zm-.1 5.9c-.6 0-1.1-.2-1.4-.7s-.4-1-.4-1.7.1-1.3.4-1.8.8-.8 1.4-.8c.7 0 1.2.3 1.5.9.2.4.3.9.3 1.5 0 .7-.1 1.3-.4 1.8-.2.5-.7.8-1.4.8zm-5.2-6.9h1.1v-1.2h-1.1zm0 7.6h1.1v-6.4h-1.1zm-3.2-6.4h-.9v.9h.9v4.2c0 .4.1.7.3 1s.5.4 1 .4h.4c.1 0 .3 0 .4-.1v-.9h-.2-.2c-.2 0-.3 0-.4-.1-.2-.1-.2-.2-.2-.4v-4.2h1v-.9h-1v-1.7h-1.1zm-5.3 2.7c-.6.1-1.1.3-1.5.6s-.6.8-.6 1.4c0 .5.2 1 .6 1.4s.9.5 1.5.5c.5 0 .9-.1 1.4-.3s.7-.5.9-.7c0 .3.1.5.2.6.2.3.4.4.8.4h.4c.1 0 .2 0 .4-.1v-.8h-.2-.2c-.1 0-.2 0-.3-.1s-.1-.2-.1-.3v-3.7c0-.6-.2-1.1-.7-1.3-.5-.3-1.1-.4-1.8-.4-.6 0-1.2.2-1.7.5s-.7.9-.8 1.7h1c0-.3.1-.6.3-.8.2-.3.6-.5 1.2-.5.5 0 .9.1 1.1.2.3.2.4.4.4.8 0 .2 0 .3-.1.4-.1.2-.2.3-.5.3zm-.9 2c0-.4.2-.7.5-.9.2-.1.5-.2.9-.2l.7-.1c.2 0 .4-.1.6-.1.2-.1.4-.1.5-.2v.9c0 .7-.3 1.1-.9 1.4-.4.2-.7.3-1.1.3-.3 0-.6-.1-.8-.3-.3-.3-.4-.5-.4-.8zm-7.8 4.2h1.1v-3.3c.2.3.5.5.6.6.3.2.7.3 1.2.3.6 0 1.2-.2 1.6-.6.7-.6 1.1-1.6 1.1-3 0-1-.3-1.8-.8-2.4s-1.1-.8-1.9-.8c-.5 0-.9.1-1.3.4-.3.2-.5.4-.7.7v-.8h-1.1v8.9zm2.8-3.3c-.7 0-1.3-.3-1.5-1-.1-.3-.2-.8-.2-1.3 0-.6.1-1.1.2-1.5.3-.7.8-1.1 1.5-1.1s1.3.4 1.5 1.1c.1.4.2.8.2 1.3 0 .8-.2 1.5-.5 1.9s-.7.6-1.2.6zm-5.4-6.8h1.1v-1.2h-1.1zm0 7.6h1.1v-6.4h-1.1zm-3.6-6.6c-.8 0-1.5.3-2.1.9s-.8 1.5-.8 2.6c0 .9.2 1.7.7 2.3s1.2.9 2 .9c.7 0 1.4-.2 1.8-.6.5-.4.8-1 .9-1.9h-1c-.1.5-.3.8-.5 1.1-.3.3-.6.4-1.1.4-.6 0-1-.2-1.3-.7-.3-.4-.4-1-.4-1.6s.1-1.2.3-1.6c.3-.7.8-1 1.5-1 .5 0 .9.1 1.1.4s.4.6.4 1h1c-.1-.9-.4-1.5-.8-1.8-.4-.2-1-.4-1.7-.4zm-5.2-1h1.1v-1.2h-1.1zm0 7.6h1.1v-6.4h-1.1zm-3.2-6.4h-.9v.9h.9v4.2c0 .4.1.7.3 1s.5.4 1 .4h.4c.1 0 .3 0 .4-.1v-.9h-.2-.2c-.2 0-.3 0-.4-.1-.2-.1-.2-.2-.2-.4v-4.2h1v-.9h-1v-1.7h-1.1zm-4.3 6.4h1.1v-3.7c0-.5.1-.9.4-1.2s.7-.5 1.2-.5h.2.2v-1.1c-.1 0-.2 0-.2 0h-.1c-.4 0-.8.2-1.1.5s-.5.6-.6.8v-1.1h-1v6.3zm-5.1-3.7c-.6.1-1.1.3-1.5.6s-.6.8-.6 1.4c0 .5.2 1 .6 1.4s.9.5 1.5.5c.5 0 .9-.1 1.4-.3s.7-.5.9-.7c0 .3.1.5.2.6.2.3.4.4.8.4h.4c.1 0 .2 0 .4-.1v-.8h-.2-.2c-.1 0-.2 0-.3-.1s-.1-.2-.1-.3v-3.7c0-.6-.2-1.1-.7-1.3-.5-.3-1.1-.4-1.8-.4-.6 0-1.2.2-1.7.5s-.7.9-.8 1.7h1c0-.3.1-.6.3-.8.2-.3.6-.5 1.2-.5.5 0 .9.1 1.1.2.3.2.4.4.4.8 0 .2 0 .3-.1.4-.1.2-.2.3-.5.3zm-.9 2c0-.4.2-.7.5-.9.2-.1.5-.2.9-.2l.7-.1c.2 0 .4-.1.6-.1.2-.1.4-.1.5-.2v.9c0 .7-.3 1.1-.9 1.4-.4.2-.7.3-1.1.3-.3 0-.6-.1-.8-.3-.3-.3-.4-.5-.4-.8zm-7.7 4.2h1.1v-3.3c.2.3.5.5.6.6.3.2.7.3 1.2.3.6 0 1.2-.2 1.6-.6.7-.6 1.1-1.6 1.1-3 0-1-.3-1.8-.8-2.4s-1.1-.8-1.9-.8c-.5 0-.9.1-1.3.4-.3.2-.5.4-.7.7v-.8h-1.1v8.9zm2.8-3.3c-.7 0-1.3-.3-1.5-1-.1-.3-.2-.8-.2-1.3 0-.6.1-1.1.2-1.5.3-.7.8-1.1 1.5-1.1s1.3.4 1.5 1.1c.1.4.2.8.2 1.3 0 .8-.2 1.5-.5 1.9s-.7.6-1.2.6zm-10.2.8h1.1v-3.7c0-.5.1-.9.4-1.2s.7-.5 1.2-.5h.2.2v-1.1c-.1 0-.2 0-.2 0h-.1c-.4 0-.8.2-1.1.5s-.5.6-.6.8v-1.1h-1v6.3zm-4.3-6.6c-.9 0-1.6.3-2.2 1-.5.6-.8 1.5-.8 2.6 0 1 .3 1.8.8 2.4s1.2.9 2.1.9c1 0 1.8-.3 2.3-1s.7-1.5.7-2.6-.3-1.9-.8-2.4-1.3-.9-2.1-.9zm0 5.9c-.6 0-1.1-.2-1.4-.7s-.4-1-.4-1.7.1-1.3.4-1.8.8-.8 1.4-.8c.7 0 1.2.3 1.5.9.2.4.3.9.3 1.5 0 .7-.1 1.3-.4 1.8-.2.5-.7.8-1.4.8zm-7.1-5.8c-.9 0-1.6.3-2 1-.5.7-.7 1.5-.7 2.4 0 1 .3 1.8.8 2.4s1.1.9 1.8.9c.4 0 .8-.1 1.2-.3.3-.2.6-.5.9-.9v.9h1v-8.8h-1v3.2c-.2-.3-.5-.5-.6-.6-.5-.1-.9-.2-1.4-.2zm-1.6 3.3c0-.8.2-1.4.5-1.8s.8-.6 1.3-.6.9.2 1.2.6.5 1 .5 1.8-.2 1.4-.5 1.8-.7.6-1.2.6c-.6 0-1.1-.2-1.4-.7-.2-.4-.4-1-.4-1.7zm-7.5 3.2h1.1v-3.4c0-.4 0-.7.1-1 .1-.2.2-.4.4-.7s.5-.4.8-.5c.2-.1.4-.1.6-.1.5 0 .8.2 1 .6.1.2.2.6.2.9v4h1.1v-4.1c0-.6-.1-1.1-.3-1.5-.3-.6-.9-1-1.8-1-.4 0-.8.1-1.1.2-.3.2-.7.4-1 .8v-.9h-1v6.7zm-6-3.7c0-.5.2-1 .5-1.4s.7-.5 1.2-.5c.7 0 1.2.3 1.5.8.2.3.3.7.3 1.1zm1.9-2.9c-.9 0-1.6.3-2.2 1-.6.6-.8 1.5-.8 2.5s.3 1.9.8 2.4c.6.6 1.2.9 2 .9.3 0 .6 0 .9-.1.5-.1.9-.3 1.2-.6.2-.2.4-.4.5-.7.2-.3.3-.6.3-.8h-1.1c-.1.3-.2.5-.4.8-.3.4-.8.6-1.3.6-.6 0-1-.2-1.3-.6s-.4-.9-.5-1.6h4.7c0-.6 0-1.1-.1-1.4-.1-.4-.2-.8-.4-1.1s-.5-.6-1-.8c-.4-.4-.9-.5-1.3-.5zm-9.5.2 2.4 6.4h1.1l2.4-6.4h-1.2l-1.8 5.2-1.7-5.2zm-5.4 6.4h1.1v-8.8h-1.1zm-2.7 0h1.1v-8.8h-1.1zm-6.9-6.4v4.4c0 .5.1 1 .3 1.3.3.6.9.9 1.8.9.6 0 1.1-.2 1.5-.5.2-.2.4-.4.5-.6v.9h1v-6.4h-1.1v3.1c0 .6-.1 1.1-.2 1.5-.3.7-.8 1-1.5 1-.5 0-.9-.2-1-.6-.1-.2-.2-.5-.2-.8v-4.3h-1.1zm-7.2 6.4h1.2v-4h4.3v-1h-4.3v-2.7h4.9v-1.1h-6.1z" fill="#333"/><path d="m58.6 365.8c-.7 0-1.3-.6-1.3-1.3s.6-1.3 1.3-1.3 1.3.6 1.3 1.3c-.1.7-.6 1.3-1.3 1.3" fill="#1e1e1e"/><path d="m73.6 364.5c0 2.8-2.2 5-5 5s-5-2.2-5-5 2.2-5 5-5 5 2.2 5 5z" fill="#fff"/><path d="m73.6 364.5h-.2c0 1.3-.5 2.5-1.4 3.4s-2.1 1.4-3.4 1.4-2.5-.5-3.4-1.4-1.4-2.1-1.4-3.4.5-2.5 1.4-3.4 2.1-1.4 3.4-1.4c2.6 0 4.8 2.1 4.8 4.8h.2.2c0-2.9-2.4-5.3-5.3-5.3s-5.3 2.4-5.3 5.3 2.4 5.3 5.3 5.3 5.3-2.4 5.3-5.3z" fill="#1e1e1e"/><path d="m69.9 364.5c0 .7-.6 1.3-1.3 1.3s-1.3-.6-1.3-1.3.6-1.3 1.3-1.3 1.3.6 1.3 1.3" fill="#1e1e1e"/><path d="m91.2 364.5c0 3.8-3.1 6.9-6.9 6.9s-6.9-3.1-6.9-6.9 3.1-6.9 6.9-6.9 6.9 3.1 6.9 6.9z" fill="#fff"/><path d="m91.2 364.5h-.2c0 1.8-.7 3.5-1.9 4.7s-2.9 1.9-4.7 1.9-3.5-.7-4.7-1.9-1.9-2.9-1.9-4.7.7-3.5 1.9-4.7 2.9-1.9 4.7-1.9 3.5.7 4.7 1.9 1.9 2.9 1.9 4.7h.2.2c0-4-3.2-7.1-7.1-7.1s-7.1 3.2-7.1 7.1 3.2 7.1 7.1 7.1 7.1-3.2 7.1-7.1z" fill="#1e1e1e"/><path d="m85.5 364.5c0 .7-.6 1.3-1.3 1.3s-1.3-.6-1.3-1.3.6-1.3 1.3-1.3c.8 0 1.3.6 1.3 1.3" fill="#1e1e1e"/><ellipse cx="103.1" cy="364.5" fill="#fff" rx="8.8" ry="8.8" transform="matrix(.1897 -.9818 .9818 .1897 -274.313 396.5703)"/><path d="m94.3 364.4h.2c0-4.7 3.8-8.5 8.5-8.5 4.7 0 8.5 3.8 8.5 8.5 0 4.7-3.8 8.5-8.5 8.5-4.7 0-8.5-3.8-8.5-8.5h-.2-.2c0 5 4 9 9 9 5 0 9-4 9-9 0-5-4-9-9-9-5 0-9 4-9 9z" fill="#1e1e1e"/><circle cx="103.1" cy="364.5" fill="#1e1e1e" r="1.3"/><path d="m126.3 375.8c-6.2 0-11.3-5-11.3-11.3 0-6.2 5.1-11.3 11.3-11.3s11.3 5.1 11.3 11.3-5.1 11.3-11.3 11.3z" fill="#fff"/><path d="m126.3 375.8v-.2c-3 0-5.8-1.2-7.8-3.2s-3.2-4.8-3.2-7.8 1.2-5.8 3.2-7.8 4.8-3.2 7.8-3.2 5.8 1.2 7.8 3.2 3.2 4.8 3.2 7.8-1.2 5.8-3.2 7.8-4.8 3.2-7.8 3.2v.2.2c6.4 0 11.5-5.2 11.5-11.5 0-6.4-5.2-11.5-11.5-11.5-6.4 0-11.5 5.2-11.5 11.5 0 6.4 5.2 11.5 11.5 11.5z" fill="#1e1e1e"/><path d="m126.3 365.8c-.7 0-1.3-.6-1.3-1.3s.6-1.3 1.3-1.3 1.3.6 1.3 1.3-.6 1.3-1.3 1.3" fill="#1e1e1e"/><path d="m58.6 391.8c-.7 0-1.3-.6-1.3-1.3s.6-1.3 1.3-1.3 1.3.6 1.3 1.3c-.1.7-.6 1.3-1.3 1.3z" fill="#fff"/><path d="m58.6 391.8v-.2c-.6 0-1-.5-1-1 0-.6.4-1 1-1s1 .4 1 1-.4 1-1 1v.2.2c.8 0 1.5-.7 1.5-1.5s-.7-1.5-1.5-1.5-1.5.7-1.5 1.5.7 1.5 1.5 1.5z" fill="#1e1e1e"/><path d="m73.6 390.5c0 2.8-2.2 5-5 5s-5-2.2-5-5 2.2-5 5-5 5 2.2 5 5z" fill="#ccc"/><path d="m73.6 390.5h-.2c0 1.3-.5 2.5-1.4 3.4s-2.1 1.4-3.4 1.4-2.5-.5-3.4-1.4-1.4-2.1-1.4-3.4.5-2.5 1.4-3.4 2.1-1.4 3.4-1.4c2.6 0 4.8 2.1 4.8 4.8h.2.2c0-2.9-2.4-5.3-5.3-5.3s-5.3 2.4-5.3 5.3 2.4 5.3 5.3 5.3 5.3-2.4 5.3-5.3z" fill="#aaa"/><path d="m69.9 390.5c0 .7-.6 1.3-1.3 1.3s-1.3-.6-1.3-1.3.6-1.3 1.3-1.3c.7.1 1.3.6 1.3 1.3z" fill="#fff"/><path d="m69.9 390.5h-.2c0 .6-.4 1-1 1s-1-.4-1-1 .5-1 1-1c.6 0 1 .4 1 1h.2.2c0-.8-.7-1.5-1.5-1.5s-1.5.7-1.5 1.5.7 1.5 1.5 1.5 1.5-.7 1.5-1.5z" fill="#1e1e1e"/><path d="m91.2 390.5c0 3.8-3.1 6.9-6.9 6.9s-6.9-3.1-6.9-6.9 3.1-6.9 6.9-6.9 6.9 3.1 6.9 6.9z" fill="#ccc"/><path d="m91.2 390.5h-.2c0 1.8-.7 3.5-1.9 4.7s-2.9 1.9-4.7 1.9-3.5-.7-4.7-1.9-1.9-2.9-1.9-4.7.7-3.5 1.9-4.7 2.9-1.9 4.7-1.9 3.5.7 4.7 1.9 1.9 2.9 1.9 4.7h.2.2c0-3.9-3.2-7.1-7.1-7.1s-7.1 3.2-7.1 7.1 3.2 7.1 7.1 7.1 7.1-3.2 7.1-7.1z" fill="#aaa"/><path d="m85.5 390.5c0 .7-.6 1.3-1.3 1.3s-1.3-.6-1.3-1.3.6-1.3 1.3-1.3c.8.1 1.3.6 1.3 1.3z" fill="#fff"/><path d="m85.5 390.5h-.2c0 .6-.4 1-1 1s-1-.4-1-1 .5-1 1-1c.6 0 1 .4 1 1h.2.2c0-.8-.7-1.5-1.5-1.5s-1.5.7-1.5 1.5.7 1.5 1.5 1.5 1.5-.7 1.5-1.5z" fill="#1e1e1e"/><path d="m94.3 390.5c0-4.8 4-8.8 8.8-8.7 4.8 0 8.8 4 8.7 8.8 0 4.8-4 8.8-8.8 8.7-4.8 0-8.7-4-8.7-8.8z" fill="#ccc"/><path d="m94.3 390.5h.2c0-4.7 3.8-8.5 8.5-8.5 4.7 0 8.5 3.8 8.5 8.5 0 4.7-3.8 8.5-8.5 8.5-4.7 0-8.5-3.8-8.5-8.5h-.2-.2c0 5 4 9 9 9 5 0 9-4 9-9 0-5-4-9-9-9-5 0-9 4-9 9z" fill="#aaa"/><path d="m103.1 391.8c-.7 0-1.3-.6-1.3-1.3s.6-1.3 1.3-1.3 1.3.6 1.3 1.3-.6 1.3-1.3 1.3z" fill="#fff"/><path d="m103.1 391.8v-.2c-.6 0-1-.5-1-1 0-.6.5-1 1-1 .6 0 1 .5 1 1 0 .6-.4 1-1 1v.2.2c.8 0 1.5-.7 1.5-1.5s-.7-1.5-1.5-1.5-1.5.7-1.5 1.5.7 1.5 1.5 1.5z" fill="#1e1e1e"/><path d="m126.3 401.8c-6.2 0-11.3-5-11.3-11.3 0-6.2 5.1-11.3 11.3-11.3s11.3 5.1 11.3 11.3c0 6.3-5.1 11.3-11.3 11.3z" fill="#ccc"/><path d="m126.3 401.8v-.2c-3 0-5.8-1.2-7.8-3.2s-3.2-4.8-3.2-7.8 1.2-5.8 3.2-7.8 4.8-3.2 7.8-3.2 5.8 1.2 7.8 3.2 3.2 4.8 3.2 7.8-1.2 5.8-3.2 7.8-4.8 3.2-7.8 3.2v.2.2c6.4 0 11.5-5.2 11.5-11.5 0-6.4-5.2-11.5-11.5-11.5-6.4 0-11.5 5.2-11.5 11.5 0 6.4 5.2 11.5 11.5 11.5z" fill="#aaa"/><path d="m126.3 391.8c-.7 0-1.3-.6-1.3-1.3s.6-1.3 1.3-1.3 1.3.6 1.3 1.3-.6 1.3-1.3 1.3z" fill="#fff"/><path d="m126.3 391.8v-.2c-.6 0-1-.5-1-1 0-.6.4-1 1-1s1 .5 1 1c0 .6-.4 1-1 1v.2.2c.8 0 1.5-.7 1.5-1.5s-.7-1.5-1.5-1.5-1.5.7-1.5 1.5.7 1.5 1.5 1.5z" fill="#1e1e1e"/><g fill="#333"><path d="m306.2 394.2h1.1v-3.4c0-.4 0-.7.1-1 .1-.2.2-.4.4-.7s.5-.4.8-.5c.2-.1.4-.1.6-.1.5 0 .8.2 1 .6.1.2.2.6.2.9v4h1.1v-4.1c0-.6-.1-1.1-.3-1.5-.3-.6-.9-1-1.8-1-.4 0-.8.1-1.1.2-.3.2-.7.4-1 .8v-.9h-1v6.7zm-4.3-6.6c-.9 0-1.6.3-2.2 1-.5.6-.8 1.5-.8 2.6 0 1 .3 1.8.8 2.4s1.2.9 2.1.9c1 0 1.8-.3 2.3-1s.7-1.5.7-2.6-.3-1.9-.8-2.4-1.2-.9-2.1-.9zm0 5.9c-.6 0-1.1-.2-1.4-.7s-.4-1-.4-1.7.1-1.3.4-1.8.8-.8 1.4-.8c.7 0 1.2.3 1.5.9.2.4.3.9.3 1.5 0 .7-.1 1.3-.4 1.8-.2.5-.7.8-1.4.8zm-5.2-6.9h1.1v-1.2h-1.1zm0 7.6h1.1v-6.4h-1.1zm-3.2-6.4h-.9v.9h.9v4.2c0 .4.1.7.3 1s.5.4 1 .4h.4c.1 0 .3 0 .4-.1v-.9h-.2-.2c-.2 0-.3 0-.4-.1-.2-.1-.2-.2-.2-.4v-4.2h1v-.9h-1v-1.7h-1.1zm-5.3 2.7c-.6.1-1.1.3-1.5.6s-.6.8-.6 1.4c0 .5.2 1 .6 1.4s.9.5 1.5.5c.5 0 .9-.1 1.4-.3s.7-.5.9-.7c0 .3.1.5.2.6.2.3.4.4.8.4h.4c.1 0 .2 0 .4-.1v-.8h-.2-.2c-.1 0-.2 0-.3-.1s-.1-.2-.1-.3v-3.7c0-.6-.2-1.1-.7-1.3-.5-.3-1.1-.4-1.8-.4-.6 0-1.2.2-1.7.5s-.7.9-.8 1.7h1c0-.3.1-.6.3-.8.2-.3.6-.5 1.2-.5.5 0 .9.1 1.1.2.3.2.4.4.4.8 0 .2 0 .3-.1.4-.1.2-.2.3-.5.3zm-.9 2c0-.4.2-.7.5-.9.2-.1.5-.2.9-.2l.7-.1c.2 0 .4-.1.6-.1.2-.1.4-.1.5-.2v.9c0 .7-.3 1.1-.9 1.4-.4.2-.7.3-1.1.3-.3 0-.6-.1-.8-.3-.3-.2-.4-.5-.4-.8zm-7.8 4.3h1.1v-3.3c.2.3.5.5.6.6.3.2.7.3 1.2.3.6 0 1.2-.2 1.6-.6.7-.6 1.1-1.6 1.1-3 0-1-.3-1.8-.8-2.4s-1.1-.8-1.9-.8c-.5 0-.9.1-1.3.4-.3.2-.5.4-.7.7v-.8h-1.1v8.9zm2.8-3.3c-.7 0-1.3-.3-1.5-1-.1-.3-.2-.8-.2-1.3 0-.6.1-1.1.2-1.5.3-.7.8-1.1 1.5-1.1s1.3.4 1.5 1.1c.1.4.2.8.2 1.3 0 .8-.2 1.5-.5 1.9s-.7.6-1.2.6zm-5.4-6.9h1.1v-1.2h-1.1zm0 7.6h1.1v-6.4h-1.1zm-3.7-6.6c-.8 0-1.5.3-2.1.9s-.8 1.5-.8 2.6c0 .9.2 1.7.7 2.3s1.2.9 2 .9c.7 0 1.4-.2 1.8-.6.5-.4.8-1 .9-1.9h-1c-.1.5-.3.8-.5 1.1-.3.3-.6.4-1.1.4-.6 0-1-.2-1.3-.7-.3-.4-.4-1-.4-1.6s.1-1.2.3-1.6c.3-.7.8-1 1.5-1 .5 0 .9.1 1.1.4s.4.6.4 1h1c-.1-.9-.4-1.5-.8-1.8-.3-.2-.9-.4-1.7-.4zm-5.1-1h1.1v-1.2h-1.1zm0 7.6h1.1v-6.4h-1.1zm-3.2-6.4h-.9v.9h.9v4.2c0 .4.1.7.3 1s.5.4 1 .4h.4c.1 0 .3 0 .4-.1v-.9h-.2-.2c-.2 0-.3 0-.4-.1-.2-.1-.2-.2-.2-.4v-4.2h1v-.9h-1v-1.7h-1.1zm-4.3 6.4h1.1v-3.7c0-.5.1-.9.4-1.2s.7-.5 1.2-.5h.2.2v-1.1c-.1 0-.2 0-.2 0h-.1c-.4 0-.8.2-1.1.5s-.5.6-.6.8v-1.1h-1v6.3zm-5.1-3.7c-.6.1-1.1.3-1.5.6s-.6.8-.6 1.4c0 .5.2 1 .6 1.4s.9.5 1.5.5c.5 0 .9-.1 1.4-.3s.7-.5.9-.7c0 .3.1.5.2.6.2.3.4.4.8.4h.4c.1 0 .2 0 .4-.1v-.8h-.2-.2c-.1 0-.2 0-.3-.1s-.1-.2-.1-.3v-3.7c0-.6-.2-1.1-.7-1.3-.5-.3-1.1-.4-1.8-.4-.6 0-1.2.2-1.7.5s-.7.9-.8 1.7h1c0-.3.1-.6.3-.8.2-.3.6-.5 1.2-.5.5 0 .9.1 1.1.2.3.2.4.4.4.8 0 .2 0 .3-.1.4-.1.2-.2.3-.5.3zm-.9 2c0-.4.2-.7.5-.9.2-.1.5-.2.9-.2l.7-.1c.2 0 .4-.1.6-.1.2-.1.4-.1.5-.2v.9c0 .7-.3 1.1-.9 1.4-.4.2-.7.3-1.1.3-.3 0-.6-.1-.8-.3-.3-.2-.4-.5-.4-.8zm-7.7 4.3h1.1v-3.3c.2.3.5.5.6.6.3.2.7.3 1.2.3.6 0 1.2-.2 1.6-.6.7-.6 1.1-1.6 1.1-3 0-1-.3-1.8-.8-2.4s-1.1-.8-1.9-.8c-.5 0-.9.1-1.3.4-.3.2-.5.4-.7.7v-.8h-1.1v8.9zm2.7-3.3c-.7 0-1.3-.3-1.5-1-.1-.3-.2-.8-.2-1.3 0-.6.1-1.1.2-1.5.3-.7.8-1.1 1.5-1.1s1.3.4 1.5 1.1c.1.4.2.8.2 1.3 0 .8-.2 1.5-.5 1.9s-.6.6-1.2.6zm-10.1.7h1.1v-3.7c0-.5.1-.9.4-1.2s.7-.5 1.2-.5h.2.2v-1.1c-.1 0-.2 0-.2 0h-.1c-.4 0-.8.2-1.1.5s-.5.6-.6.8v-1.1h-1v6.3zm-4.3-6.6c-.9 0-1.6.3-2.2 1-.5.6-.8 1.5-.8 2.6 0 1 .3 1.8.8 2.4s1.2.9 2.1.9c1 0 1.8-.3 2.3-1s.7-1.5.7-2.6-.3-1.9-.8-2.4-1.3-.9-2.1-.9zm0 5.9c-.6 0-1.1-.2-1.4-.7s-.4-1-.4-1.7.1-1.3.4-1.8.8-.8 1.4-.8c.7 0 1.2.3 1.5.9.2.4.3.9.3 1.5 0 .7-.1 1.3-.4 1.8-.2.5-.7.8-1.4.8zm-7.1-5.8c-.9 0-1.6.3-2 1-.5.7-.7 1.5-.7 2.4 0 1 .3 1.8.8 2.4s1.1.9 1.8.9c.4 0 .8-.1 1.2-.3.3-.2.6-.5.9-.9v.9h1v-8.8h-1v3.2c-.2-.3-.5-.5-.6-.6-.5-.1-.9-.2-1.4-.2zm-1.6 3.4c0-.8.2-1.4.5-1.8s.8-.6 1.3-.6.9.2 1.2.6.5 1 .5 1.8-.2 1.4-.5 1.8-.7.6-1.2.6c-.6 0-1.1-.2-1.4-.7-.2-.5-.4-1-.4-1.7zm-7.5 3.1h1.1v-3.4c0-.4 0-.7.1-1 .1-.2.2-.4.4-.7s.5-.4.8-.5c.2-.1.4-.1.6-.1.5 0 .8.2 1 .6.1.2.2.6.2.9v4h1.1v-4.1c0-.6-.1-1.1-.3-1.5-.3-.6-.9-1-1.8-1-.4 0-.8.1-1.1.2-.3.2-.7.4-1 .8v-.9h-1v6.7zm-6-3.7c0-.5.2-1 .5-1.4s.7-.5 1.2-.5c.7 0 1.2.3 1.5.8.2.3.3.7.3 1.1zm1.9-2.8c-.9 0-1.6.3-2.2 1-.6.6-.8 1.5-.8 2.5s.3 1.9.8 2.4c.6.6 1.2.9 2 .9.3 0 .6 0 .9-.1.5-.1.9-.3 1.2-.6.2-.2.4-.4.5-.7.2-.3.3-.6.3-.8h-1.1c-.1.3-.2.5-.4.8-.3.4-.8.6-1.3.6-.6 0-1-.2-1.3-.6s-.4-.9-.5-1.6h4.7c0-.6 0-1.1-.1-1.4-.1-.4-.2-.8-.4-1.1s-.5-.6-1-.8c-.5-.4-.9-.5-1.3-.5zm-9.5.1 2.4 6.4h1.1l2.4-6.4h-1.2l-1.8 5.2-1.7-5.2zm-8.7 2.7c0-.5.2-1 .5-1.4s.7-.5 1.2-.5c.7 0 1.2.3 1.5.8.2.3.3.7.3 1.1zm1.8-2.8c-.9 0-1.6.3-2.2 1-.6.6-.8 1.5-.8 2.5s.3 1.9.8 2.4c.6.6 1.2.9 2 .9.3 0 .6 0 .9-.1.5-.1.9-.3 1.2-.6.2-.2.4-.4.5-.7.2-.3.3-.6.3-.8h-1.1c-.1.3-.2.5-.4.8-.3.4-.8.6-1.3.6-.6 0-1-.2-1.3-.6s-.4-.9-.5-1.6h4.7c0-.6 0-1.1-.1-1.4-.1-.4-.2-.8-.4-1.1s-.5-.6-1-.8c-.4-.4-.8-.5-1.3-.5zm-5.8.1h-.9v.9h.9v4.2c0 .4.1.7.3 1s.5.4 1 .4h.4c.1 0 .3 0 .4-.1v-.9h-.2-.2c-.2 0-.3 0-.4-.1-.2-.1-.2-.2-.2-.4v-4.2h1v-.9h-1v-1.7h-1.1zm-6.2 2.7c0-.5.2-1 .5-1.4s.7-.5 1.2-.5c.7 0 1.2.3 1.5.8.2.3.3.7.3 1.1zm1.8-2.8c-.9 0-1.6.3-2.2 1-.6.6-.8 1.5-.8 2.5s.3 1.9.8 2.4c.6.6 1.2.9 2 .9.3 0 .6 0 .9-.1.5-.1.9-.3 1.2-.6.2-.2.4-.4.5-.7.2-.3.3-.6.3-.8h-1c-.1.3-.2.5-.4.8-.3.4-.8.6-1.3.6-.6 0-1-.2-1.3-.6s-.4-.9-.5-1.6h4.7c0-.6 0-1.1-.1-1.4-.1-.4-.2-.8-.4-1.1s-.5-.6-1-.8c-.5-.4-1-.5-1.4-.5zm-5.3 6.5h1.1v-8.8h-1.1zm-7 2.6h1.1v-3.3c.2.3.5.5.6.6.3.2.7.3 1.2.3.6 0 1.2-.2 1.6-.6.7-.6 1.1-1.6 1.1-3 0-1-.3-1.8-.8-2.4s-1.1-.8-1.9-.8c-.5 0-.9.1-1.3.4-.3.2-.5.4-.7.7v-.8h-.9zm2.8-3.3c-.7 0-1.3-.3-1.5-1-.1-.3-.2-.8-.2-1.3 0-.6.1-1.1.2-1.5.3-.7.8-1.1 1.5-1.1s1.3.4 1.5 1.1c.1.4.2.8.2 1.3 0 .8-.2 1.5-.5 1.9s-.7.6-1.2.6zm-12.9.7h1.1v-3.4c0-.8.2-1.4.5-1.7s.7-.5 1.1-.5.8.1.9.4c.1.2.2.5.2 1v4.2h1.1v-3.7c0-.7.2-1.1.5-1.4s.7-.4 1.1-.4c.3 0 .6.1.8.2.2.2.3.5.3.9v4.5h1.1v-4.3c0-.6-.1-1-.3-1.4-.3-.6-.9-.9-1.8-.9-.4 0-.8.1-1.1.2-.3.2-.6.4-.8.8-.1-.3-.3-.5-.5-.6-.3-.3-.7-.4-1.2-.4s-.9.1-1.2.4c-.2.1-.4.4-.7.7v-.9h-1.1zm-4.2-6.6c-.9 0-1.6.3-2.2 1-.5.6-.8 1.5-.8 2.6 0 1 .3 1.8.8 2.4s1.2.9 2.1.9c1 0 1.8-.3 2.3-1s.7-1.5.7-2.6-.3-1.9-.8-2.4-1.3-.9-2.1-.9zm-.1 5.9c-.6 0-1.1-.2-1.4-.7s-.4-1-.4-1.7.1-1.3.4-1.8.8-.8 1.4-.8c.7 0 1.2.3 1.5.9.2.4.3.9.3 1.5 0 .7-.1 1.3-.4 1.8-.2.5-.7.8-1.4.8zm-6.2-5.9c-.8 0-1.5.3-2.1.9s-.8 1.5-.8 2.6c0 .9.2 1.7.7 2.3s1.2.9 2 .9c.7 0 1.4-.2 1.8-.6.5-.4.8-1 .9-1.9h-1c-.1.5-.3.8-.5 1.1-.3.3-.6.4-1.1.4-.6 0-1-.2-1.3-.7-.3-.4-.4-1-.4-1.6s.1-1.2.3-1.6c.3-.7.8-1 1.5-1 .5 0 .9.1 1.1.4s.4.6.4 1h1c-.1-.9-.4-1.5-.8-1.8-.3-.2-.9-.4-1.7-.4zm-9.2 6.6h1.1v-3.4c0-.4 0-.7.1-1 .1-.2.2-.4.4-.7s.5-.4.8-.5c.2-.1.4-.1.6-.1.5 0 .8.2 1 .6.1.2.2.6.2.9v4h1.1v-4.1c0-.6-.1-1.1-.3-1.5-.3-.6-.9-1-1.8-1-.4 0-.8.1-1.1.2-.3.2-.7.4-1 .8v-.9h-1v6.7zm-3 0h1.2v-8.8h-1.2z"/><path d="m163.2 158.2h1.1v-3.4c0-.4 0-.7.1-1 .1-.2.2-.4.4-.7s.5-.4.8-.5c.2-.1.4-.1.6-.1.5 0 .8.2 1 .6.1.2.2.6.2.9v4h1.1v-4.1c0-.6-.1-1.1-.3-1.5-.3-.6-.9-1-1.8-1-.4 0-.8.1-1.1.2-.3.2-.7.4-1 .8v-.9h-1v6.7zm-5.1-3.7c-.6.1-1.1.3-1.5.6s-.6.8-.6 1.4c0 .5.2 1 .6 1.4s.9.5 1.5.5c.5 0 .9-.1 1.4-.3s.7-.5.9-.7c0 .3.1.5.2.6.2.3.4.4.8.4h.4c.1 0 .2 0 .4-.1v-.8h-.2-.2c-.1 0-.2 0-.3-.1s-.1-.2-.1-.3v-3.7c0-.6-.2-1.1-.7-1.3-.5-.3-1.1-.4-1.8-.4-.6 0-1.2.2-1.7.5s-.7.9-.8 1.7h1c0-.3.1-.6.3-.8.2-.3.6-.5 1.2-.5.5 0 .9.1 1.1.2.3.2.4.4.4.8 0 .2 0 .3-.1.4-.1.2-.2.3-.5.3zm-.9 2c0-.4.2-.7.5-.9.2-.1.5-.2.9-.2l.7-.1c.2 0 .4-.1.6-.1.2-.1.4-.1.5-.2v.9c0 .7-.3 1.1-.9 1.4-.4.2-.7.3-1.1.3-.3 0-.6-.1-.8-.3-.3-.3-.4-.5-.4-.8zm-3.6-5.9h1.1v-1.2h-1.1zm0 7.6h1.1v-6.4h-1.1zm-6.5-2c0 .6.2 1.2.6 1.6s1.1.6 2.1.6c.9 0 1.6-.2 2-.6s.7-.9.7-1.5-.2-1-.6-1.3c-.3-.2-.8-.4-1.6-.5l-.7-.2c-.3-.1-.6-.2-.7-.3-.3-.2-.4-.4-.4-.7s.1-.5.3-.6.5-.2.9-.2c.6 0 1.1.1 1.3.4.2.2.2.4.3.7h1c0-.4-.1-.8-.4-1.2-.4-.6-1.1-.8-2.1-.8-.7 0-1.3.2-1.8.6-.4.4-.7.9-.7 1.5 0 .5.2.9.7 1.2.3.2.7.3 1.2.5l.9.2c.5.1.8.2.9.3.2.1.4.4.4.6 0 .4-.2.6-.5.8s-.7.3-1.1.3c-.7 0-1.2-.2-1.4-.5-.2-.2-.2-.5-.3-.8h-1zm-6.1 0c0 .6.2 1.2.6 1.6s1.1.6 2.1.6c.9 0 1.6-.2 2-.6s.7-.9.7-1.5-.2-1-.6-1.3c-.3-.2-.8-.4-1.6-.5l-.7-.2c-.3-.1-.6-.2-.7-.3-.3-.2-.4-.4-.4-.7s.1-.5.3-.6.5-.2.9-.2c.6 0 1.1.1 1.3.4.2.2.2.4.3.7h1c0-.4-.1-.8-.4-1.2-.4-.6-1.1-.8-2.1-.8-.7 0-1.3.2-1.8.6-.4.4-.7.9-.7 1.5 0 .5.2.9.7 1.2.3.2.7.3 1.2.5l.9.2c.5.1.8.2.9.3.2.1.4.4.4.6 0 .4-.2.6-.5.8s-.7.3-1.1.3c-.7 0-1.2-.2-1.4-.5-.2-.2-.2-.5-.3-.8h-1zm-4.7-1.7c-.6.1-1.1.3-1.5.6s-.6.8-.6 1.4c0 .5.2 1 .6 1.4s.9.5 1.5.5c.5 0 .9-.1 1.4-.3s.7-.5.9-.7c0 .3.1.5.2.6.2.3.4.4.8.4h.4c.1 0 .2 0 .4-.1v-.8h-.2-.2c-.1 0-.2 0-.3-.1s-.1-.2-.1-.3v-3.7c0-.6-.2-1.1-.7-1.3-.5-.3-1.1-.4-1.8-.4-.6 0-1.2.2-1.7.5s-.7.9-.8 1.7h1c0-.3.1-.6.3-.8.2-.3.6-.5 1.2-.5.5 0 .9.1 1.1.2.3.2.4.4.4.8 0 .2 0 .3-.1.4-.1.2-.2.3-.5.3zm-.9 2c0-.4.2-.7.5-.9.2-.1.5-.2.9-.2l.7-.1c.2 0 .4-.1.6-.1.2-.1.4-.1.5-.2v.9c0 .7-.3 1.1-.9 1.4-.4.2-.7.3-1.1.3-.3 0-.6-.1-.8-.3-.3-.3-.4-.5-.4-.8zm-3.5 1.7h1.1v-8.8h-1.1zm-3.3-6.4h-.9v.9h.9v4.2c0 .4.1.7.3 1s.5.4 1 .4h.4c.1 0 .3 0 .4-.1v-.9h-.2-.2c-.2 0-.3 0-.4-.1-.2-.1-.2-.2-.2-.4v-4.2h1v-.9h-1v-1.7h-1.1zm-8.9 6.4h1.2l1-2.6h3.4l.9 2.6h1.3l-3.2-8.8h-1.3zm2.5-3.6 1.4-3.9 1.4 3.9z"/><path d="m314 151.4c0 .9.3 1.7.9 2.3s1.4.8 2.5.8c.9 0 1.7-.2 2.4-.6s1-1.1 1-2.1c0-.8-.3-1.4-.8-1.8-.3-.2-.8-.4-1.3-.6l-1.2-.3c-.8-.2-1.3-.4-1.5-.5-.3-.2-.5-.5-.5-.9s.1-.7.4-1 .8-.4 1.5-.4c.8 0 1.4.2 1.8.7.2.3.3.6.4 1.1h1.1c0-1-.3-1.7-.9-2.1s-1.4-.7-2.3-.7c-1 0-1.7.3-2.3.8-.5.5-.8 1.2-.8 1.9s.3 1.3.8 1.6c.3.2.8.4 1.6.6l1.2.3c.6.1 1.1.3 1.4.5s.4.5.4 1c0 .6-.3 1.1-1 1.3-.4.1-.7.2-1.2.2-1 0-1.6-.3-2-.9-.2-.3-.3-.7-.3-1.2zm-11.9-6 2.3 8.8h1.3l2-7.3 2 7.3h1.2l2.3-8.8h-1.3l-1.7 7.2-2-7.2h-1.2l-2 7.1-1.7-7.1zm-7.8 8.8h1.2l1-2.6h3.4l.9 2.6h1.3l-3.2-8.8h-1.3zm2.5-3.6 1.4-3.9 1.4 3.9z"/><path d="m395.5 123.5h1.2v-8.8h-1.2zm-5.4-9c-1.3 0-2.3.5-3 1.4-.7.8-1 1.9-1 3.2 0 1.7.5 3 1.4 3.8.7.6 1.5.9 2.5.9 1.2 0 2.1-.4 2.8-1.1.6-.6.9-1.4 1-2.3h-1.2c-.1.6-.3 1-.5 1.4-.5.7-1.1 1-2 1s-1.6-.3-2.1-1c-.5-.6-.7-1.5-.7-2.5 0-1.3.3-2.2.8-2.8s1.2-.9 2.1-.9c.7 0 1.2.2 1.6.5s.6.8.8 1.3h1.2c-.1-.7-.4-1.4-1-2s-1.6-.9-2.7-.9zm-9.8 5.3c0-.5.2-1 .5-1.4s.7-.5 1.2-.5c.7 0 1.2.3 1.5.8.2.3.3.7.3 1.1zm1.8-2.9c-.9 0-1.6.3-2.2 1-.6.6-.8 1.5-.8 2.5s.3 1.9.8 2.4c.6.6 1.2.9 2 .9.3 0 .6 0 .9-.1.5-.1.9-.3 1.2-.6.2-.2.4-.4.5-.7.2-.3.3-.6.3-.8h-1.1c-.1.3-.2.5-.4.8-.3.4-.8.6-1.3.6-.6 0-1-.2-1.3-.6s-.4-.9-.5-1.6h4.7c0-.6 0-1.1-.1-1.4-.1-.4-.2-.8-.4-1.1s-.5-.6-1-.8c-.4-.4-.8-.5-1.3-.5zm-5.3 6.6h1.1v-8.8h-1.1zm-3.7-6.6c-.8 0-1.5.3-2.1.9s-.8 1.5-.8 2.6c0 .9.2 1.7.7 2.3s1.2.9 2 .9c.7 0 1.4-.2 1.8-.6.5-.4.8-1 .9-1.9h-1c-.1.5-.3.8-.5 1.1-.3.3-.6.4-1.1.4-.6 0-1-.2-1.3-.7-.3-.4-.4-1-.4-1.6s.1-1.2.3-1.6c.3-.7.8-1 1.5-1 .5 0 .9.1 1.1.4s.4.6.4 1h1c-.1-.9-.4-1.5-.8-1.8-.4-.2-1-.4-1.7-.4zm-6.5 6.6h1.1v-3.7c0-.5.1-.9.4-1.2s.7-.5 1.2-.5h.2.2v-1.1c-.1 0-.2 0-.2 0h-.1c-.4 0-.8.2-1.1.5s-.5.6-.6.8v-1.1h-1v6.3zm-2.8-7.6h1.1v-1.2h-1.1zm0 7.6h1.1v-6.4h-1.1zm-5-9c-1.3 0-2.3.5-3 1.4-.7.8-1 1.9-1 3.2 0 1.7.5 3 1.4 3.8.7.6 1.5.9 2.5.9 1.2 0 2.1-.4 2.8-1.1.6-.6.9-1.4 1-2.3h-1.2c-.1.6-.3 1-.5 1.4-.5.7-1.1 1-2 1s-1.6-.3-2.1-1c-.5-.6-.7-1.5-.7-2.5 0-1.3.3-2.2.8-2.8s1.2-.9 2.1-.9c.7 0 1.2.2 1.6.5s.6.8.8 1.3h1.2c-.1-.7-.4-1.4-1-2s-1.6-.9-2.7-.9z"/><path d="m305.2 100.5c0 .6.2 1.2.6 1.6s1.1.6 2.1.6c.9 0 1.6-.2 2-.6s.7-.9.7-1.5-.2-1-.6-1.3c-.3-.2-.8-.4-1.6-.5l-.7-.2c-.3-.1-.6-.2-.7-.3-.3-.2-.4-.4-.4-.7s.1-.5.3-.6.5-.2.9-.2c.6 0 1.1.1 1.3.4.2.2.2.4.3.7h1c0-.4-.1-.8-.4-1.2-.4-.6-1.1-.8-2.1-.8-.7 0-1.3.2-1.8.6-.4.4-.7.9-.7 1.5 0 .5.2.9.7 1.2.3.2.7.3 1.2.5l.9.2c.5.1.8.2.9.3.2.1.4.4.4.6 0 .4-.2.6-.5.8s-.7.3-1.1.3c-.7 0-1.2-.2-1.4-.5-.2-.2-.2-.5-.3-.8h-1zm-5.6-1.7c0-.5.2-1 .5-1.4s.7-.5 1.2-.5c.7 0 1.2.3 1.5.8.2.3.3.7.3 1.1zm1.8-2.8c-.9 0-1.6.3-2.2 1-.6.6-.8 1.5-.8 2.5s.3 1.9.8 2.4c.6.6 1.2.9 2 .9.3 0 .6 0 .9-.1.5-.1.9-.3 1.2-.6.2-.2.4-.4.5-.7.2-.3.3-.6.3-.8h-1.1c-.1.3-.2.5-.4.8-.3.4-.8.6-1.3.6-.6 0-1-.2-1.3-.6s-.4-.9-.5-1.6h4.7c0-.6 0-1.1-.1-1.4-.1-.4-.2-.8-.4-1.1s-.5-.6-1-.8c-.4-.4-.8-.5-1.3-.5zm-8.6 2.8c0-.5.2-1 .5-1.4s.7-.5 1.2-.5c.7 0 1.2.3 1.5.8.2.3.3.7.3 1.1zm1.8-2.8c-.9 0-1.6.3-2.2 1-.6.6-.8 1.5-.8 2.5s.3 1.9.8 2.4c.6.6 1.2.9 2 .9.3 0 .6 0 .9-.1.5-.1.9-.3 1.2-.6.2-.2.4-.4.5-.7.2-.3.3-.6.3-.8h-1.1c-.1.3-.2.5-.4.8-.3.4-.8.6-1.3.6-.6 0-1-.2-1.3-.6s-.4-.9-.5-1.6h4.7c0-.6 0-1.1-.1-1.4-.1-.4-.2-.8-.4-1.1s-.5-.6-1-.8c-.4-.4-.9-.5-1.3-.5zm-10.7 6.5h3.7c1.2 0 2-.3 2.5-1 .4-.5.5-1 .5-1.5 0-.7-.2-1.2-.6-1.6-.2-.2-.6-.4-1-.6.3-.2.5-.3.7-.5.3-.4.5-.8.5-1.4 0-.5-.1-.9-.4-1.3-.4-.6-1.2-.9-2.2-.9h-3.8v8.8zm1.2-1v-3.1h2.4c.5 0 .9.1 1.2.2.6.2.9.7.9 1.3 0 .4-.1.7-.3 1-.3.4-.8.6-1.6.6zm0-4v-2.7h2.1c.5 0 .9.1 1.2.2.5.2.7.6.7 1.2s-.2 1-.7 1.2c-.3.1-.7.2-1.2.2h-2.1zm-5.8-1.5c-.9 0-1.6.3-2 1-.5.7-.7 1.5-.7 2.4 0 1 .3 1.8.8 2.4s1.1.9 1.8.9c.4 0 .8-.1 1.2-.3.3-.2.6-.5.9-.9v.9h1v-8.8h-1v3.4c-.2-.3-.5-.5-.6-.6-.5-.3-1-.4-1.4-.4zm-1.7 3.4c0-.8.2-1.4.5-1.8s.8-.6 1.3-.6.9.2 1.2.6.5 1 .5 1.8-.2 1.4-.5 1.8-.7.6-1.2.6c-.6 0-1.1-.2-1.4-.7-.2-.4-.4-1-.4-1.7zm-7.5-3.3v4.4c0 .5.1 1 .3 1.3.3.6.9.9 1.8.9.6 0 1.1-.2 1.5-.5.2-.2.4-.4.5-.6v.9h1v-6.4h-1.1v3.1c0 .6-.1 1.1-.2 1.5-.3.7-.8 1-1.5 1-.5 0-.9-.2-1-.6-.1-.2-.2-.5-.2-.8v-4.3h-1.1zm-4.2-.1c-.9 0-1.6.3-2.2 1-.5.6-.8 1.5-.8 2.6 0 1 .3 1.8.8 2.4s1.2.9 2.1.9c1 0 1.8-.3 2.3-1s.7-1.5.7-2.6-.3-1.9-.8-2.4-1.3-.9-2.1-.9zm0 5.8c-.6 0-1.1-.2-1.4-.7s-.4-1-.4-1.7.1-1.3.4-1.8.8-.8 1.4-.8c.7 0 1.2.3 1.5.9.2.4.3.9.3 1.5 0 .7-.1 1.3-.4 1.8-.3.6-.7.8-1.4.8zm-5.3.7h1.1v-8.8h-1.1zm-5-9c-1.3 0-2.3.5-3 1.4-.7.8-1 1.9-1 3.2 0 1.7.5 3 1.4 3.8.7.6 1.5.9 2.5.9 1.2 0 2.1-.4 2.8-1.1.6-.6.9-1.4 1-2.3h-1.2c-.1.6-.3 1-.5 1.4-.5.7-1.1 1-2 1s-1.6-.3-2.1-1c-.5-.6-.7-1.5-.7-2.5 0-1.3.3-2.2.8-2.8s1.2-.9 2.1-.9c.7 0 1.2.2 1.6.5s.6.8.8 1.3h1.2c-.1-.7-.4-1.4-1-2s-1.6-.9-2.7-.9z"/><path d="m360.5 192.3h1.1v-3.3c.2.3.5.5.6.6.3.2.7.3 1.2.3.6 0 1.2-.2 1.6-.6.7-.6 1.1-1.6 1.1-3 0-1-.3-1.8-.8-2.4s-1.1-.8-1.9-.8c-.5 0-.9.1-1.3.4-.3.2-.5.4-.7.7v-.8h-1.1v8.9zm2.8-3.2c-.7 0-1.3-.3-1.5-1-.1-.3-.2-.8-.2-1.3 0-.6.1-1.1.2-1.5.3-.7.8-1.1 1.5-1.1s1.3.4 1.5 1.1c.1.4.2.8.2 1.3 0 .8-.2 1.5-.5 1.9s-.7.6-1.2.6zm-5.5-6.9h1.1v-1.2h-1.1zm0 7.6h1.1v-6.4h-1.1zm-6.8 0h1.1v-3.4c0-.9.2-1.4.5-1.7.4-.3.8-.5 1.2-.5.5 0 .9.2 1.1.5.1.2.2.6.2 1v4h1.1v-4.1c0-.6-.1-1.1-.3-1.5-.3-.6-1-1-1.9-1-.5 0-1 .1-1.3.3-.2.1-.4.4-.7.7v-3.1h-1zm-6.5-2c0 .6.2 1.2.6 1.6s1.1.6 2.1.6c.9 0 1.6-.2 2-.6s.7-.9.7-1.5-.2-1-.6-1.3c-.3-.2-.8-.4-1.6-.5l-.7-.2c-.3-.1-.6-.2-.7-.3-.3-.2-.4-.4-.4-.7s.1-.5.3-.6.5-.2.9-.2c.6 0 1.1.1 1.3.4.2.2.2.4.3.7h1c0-.4-.1-.8-.4-1.2-.4-.6-1.1-.8-2.1-.8-.7 0-1.3.2-1.8.6-.4.4-.7.9-.7 1.5 0 .5.2.9.7 1.2.3.2.7.3 1.2.5l.9.2c.5.1.8.2.9.3.2.1.4.4.4.6 0 .4-.2.6-.5.8s-.7.3-1.1.3c-.7 0-1.2-.2-1.4-.5-.2-.2-.2-.5-.3-.8h-1zm-5.6-1.7c0-.5.2-1 .5-1.4s.7-.5 1.2-.5c.7 0 1.2.3 1.5.8.2.3.3.7.3 1.1zm1.8-2.9c-.9 0-1.6.3-2.2 1-.6.6-.8 1.5-.8 2.5s.3 1.9.8 2.4c.6.6 1.2.9 2 .9.3 0 .6 0 .9-.1.5-.1.9-.3 1.2-.6.2-.2.4-.4.5-.7.2-.3.3-.6.3-.8h-1.1c-.1.3-.2.5-.4.8-.3.4-.8.6-1.3.6-.6 0-1-.2-1.3-.6s-.4-.9-.5-1.6h4.7c0-.6 0-1.1-.1-1.4-.1-.4-.2-.8-.4-1.1s-.5-.6-1-.8c-.4-.4-.8-.5-1.3-.5zm-7.1.1c-.9 0-1.6.3-2 1-.5.7-.7 1.5-.7 2.4 0 1 .3 1.8.8 2.4s1.1.9 1.8.9c.4 0 .8-.1 1.2-.3.3-.2.6-.5.9-.9v.9h1v-8.7h-1v3.2c-.2-.3-.5-.5-.6-.6-.5-.2-.9-.3-1.4-.3zm-1.6 3.4c0-.8.2-1.4.5-1.8s.8-.6 1.3-.6.9.2 1.2.6.5 1 .5 1.8-.2 1.4-.5 1.8-.7.6-1.2.6c-.6 0-1.1-.2-1.4-.7s-.4-1.1-.4-1.7zm-5-3.5c-.9 0-1.6.3-2.2 1-.5.6-.8 1.5-.8 2.6 0 1 .3 1.8.8 2.4s1.2.9 2.1.9c1 0 1.8-.3 2.3-1s.7-1.5.7-2.6-.3-1.9-.8-2.4-1.3-.9-2.1-.9zm0 5.9c-.6 0-1.1-.2-1.4-.7s-.4-1-.4-1.7.1-1.3.4-1.8.8-.8 1.4-.8c.7 0 1.2.3 1.5.9.2.4.3.9.3 1.5 0 .7-.1 1.3-.4 1.8-.2.5-.7.8-1.4.8zm-7.6-8.3c-1.3 0-2.3.5-3 1.4-.7.8-1 1.9-1 3.2 0 1.7.5 3 1.4 3.8.7.6 1.5.9 2.5.9 1.2 0 2.1-.4 2.8-1.1.6-.6.9-1.4 1-2.3h-1.2c-.1.6-.3 1-.5 1.4-.5.7-1.1 1-2 1s-1.6-.3-2.1-1c-.5-.6-.7-1.5-.7-2.5 0-1.3.3-2.2.8-2.8s1.2-.9 2.1-.9c.7 0 1.2.2 1.6.5s.6.8.8 1.3h1.2c-.1-.7-.4-1.4-1-2s-1.6-.9-2.7-.9z"/><path d="m410.4 67.6c-.8 0-1.3-.4-1.6-1.1-.2-.4-.2-.9-.2-1.5 0-.8.2-1.4.6-1.8s.8-.5 1.3-.5c.6 0 1 .2 1.3.7.3.4.4 1 .4 1.7 0 .8-.1 1.4-.4 1.8s-.8.7-1.4.7zm-2.8.8h1v-.8c.2.3.4.5.6.7.3.2.7.4 1.2.4.9 0 1.6-.3 2-1s.7-1.5.7-2.5c0-1.1-.2-1.9-.7-2.4s-1.1-.8-1.9-.8c-.4 0-.7.1-1.1.2-.3.2-.6.4-.8.7v-3.2h-1zm-5-3.7c-.6.1-1.1.3-1.5.6s-.6.8-.6 1.4c0 .5.2 1 .6 1.4s.9.5 1.5.5c.5 0 .9-.1 1.4-.3s.7-.5.9-.7c0 .3.1.5.2.6.2.3.4.4.8.4h.4c.1 0 .2 0 .4-.1v-.8h-.2-.2c-.1 0-.2 0-.3-.1s-.1-.2-.1-.3v-3.7c0-.6-.2-1.1-.7-1.3-.5-.3-1.1-.4-1.8-.4-.6 0-1.2.2-1.7.5s-.7.9-.8 1.7h1c0-.3.1-.6.3-.8.2-.3.6-.5 1.2-.5.5 0 .9.1 1.1.2.3.2.4.4.4.8 0 .2 0 .3-.1.4-.1.2-.2.3-.5.3zm-.9 2c0-.4.2-.7.5-.9.2-.1.5-.2.9-.2l.7-.1c.2 0 .4-.1.6-.1.2-.1.4-.1.5-.2v.8c0 .7-.3 1.1-.9 1.4-.4.2-.7.3-1.1.3-.3 0-.6-.1-.8-.3-.3-.2-.4-.4-.4-.7zm-7.5 1.7h5.6v-1h-4.4v-7.7h-1.2zm-3.3-6.4h-.9v.9h.9v4.2c0 .4.1.7.3 1s.5.4 1 .4h.4c.1 0 .3 0 .4-.1v-.9h-.2-.2c-.2 0-.3 0-.4-.1-.2-.1-.2-.2-.2-.4v-4.2h1v-.8h-1v-1.8h-1.1zm-2.9-1.2h1.1v-1.2h-1.1zm0 7.6h1.1v-6.4h-1.1zm-5.7-9.1c-1.2 0-2.2.4-2.9 1.2-.8.9-1.2 2-1.2 3.5s.4 2.6 1.2 3.5c.7.7 1.6 1 2.6 1 .8 0 1.4-.1 2-.4.3-.2.7-.5 1.1-.9l.3 1.1h.8v-4.7h-3.9v1h2.8c0 1-.3 1.8-.8 2.2-.5.5-1.2.7-1.9.7-1 0-1.7-.3-2.2-1-.4-.7-.7-1.5-.7-2.6 0-1.2.3-2.1.8-2.7s1.2-.9 2-.9c.7 0 1.2.1 1.7.4s.7.8.9 1.4h1.2c-.2-1.1-.7-2-1.6-2.4-.7-.2-1.4-.4-2.2-.4z"/><path d="m114.2 223.1h1.1v-5.2c0-.2 0-.5 0-1 0-.4 0-.8 0-1v-.3l2.5 7.4h1.2l2.5-7.4v1.3.9 5.2h1.1v-8.8h-1.7l-2.5 7.4-2.5-7.4h-1.7zm-8.2 0h3.7c1.2 0 2-.3 2.5-1 .4-.5.5-1 .5-1.5 0-.7-.2-1.2-.6-1.6-.2-.2-.6-.4-1-.6.3-.2.5-.3.7-.5.3-.4.5-.8.5-1.4 0-.5-.1-.9-.4-1.3-.4-.6-1.2-.9-2.2-.9h-3.7zm1.2-1v-3.1h2.4c.5 0 .9.1 1.2.2.6.2.9.7.9 1.3 0 .4-.1.7-.3 1-.3.4-.8.6-1.6.6zm0-4v-2.7h2.1c.5 0 .9.1 1.2.2.5.2.7.6.7 1.2s-.2 1-.7 1.2c-.3.1-.7.2-1.2.2h-2.1zm-4.3 5h1.2v-8.8h-1.2z"/><path d="m229.7 191.3c0 .6.2 1.2.6 1.6s1.1.6 2.1.6c.9 0 1.6-.2 2-.6s.7-.9.7-1.5-.2-1-.6-1.3c-.3-.2-.8-.4-1.6-.5l-.7-.2c-.3-.1-.6-.2-.7-.3-.3-.2-.4-.4-.4-.7s.1-.5.3-.6.5-.2.9-.2c.6 0 1.1.1 1.3.4.2.2.2.4.3.7h1c0-.4-.1-.8-.4-1.2-.4-.6-1.1-.8-2.1-.8-.7 0-1.3.2-1.8.6-.4.4-.7.9-.7 1.5 0 .5.2.9.7 1.2.3.2.7.3 1.2.5l.9.2c.5.1.8.2.9.3.2.1.4.4.4.6 0 .4-.2.6-.5.8s-.7.3-1.1.3c-.7 0-1.2-.2-1.4-.5-.2-.2-.2-.5-.3-.8h-1zm-6.4 2h1.1v-3.3c0-.4 0-.7.1-1 .1-.2.2-.4.4-.7s.5-.4.8-.5c.2-.1.4-.1.6-.1.5 0 .8.2 1 .6.1.2.2.6.2.9v4h1.1v-4.1c0-.6-.1-1.1-.3-1.5-.3-.6-.9-1-1.8-1-.4 0-.8.1-1.1.2-.3.2-.7.4-1 .8v-.9h-1v6.6zm-2.7-7.5h1.1v-1.2h-1.1zm0 7.5h1.1v-6.3h-1.1zm-5.1-3.6c-.6.1-1.1.3-1.5.6s-.6.8-.6 1.4c0 .5.2 1 .6 1.4s.9.5 1.5.5c.5 0 .9-.1 1.4-.3s.7-.5.9-.7c0 .3.1.5.2.6.2.3.4.4.8.4h.4c.1 0 .2 0 .4-.1v-.8h-.2-.2c-.1 0-.2 0-.3-.1s-.1-.2-.1-.3v-3.7c0-.6-.2-1.1-.7-1.3-.5-.3-1.1-.4-1.8-.4-.6 0-1.2.2-1.7.5s-.7.9-.8 1.7h1c0-.3.1-.6.3-.8.2-.3.6-.5 1.2-.5.5 0 .9.1 1.1.2.3.2.4.4.4.8 0 .2 0 .3-.1.4-.1.2-.2.3-.5.3zm-.9 1.9c0-.4.2-.7.5-.9.2-.1.5-.2.9-.2l.7-.1c.2 0 .4-.1.6-.1.2-.1.4-.1.5-.2v.9c0 .7-.3 1.1-.9 1.4-.4.2-.7.3-1.1.3-.3 0-.6-.1-.8-.3-.3-.2-.4-.5-.4-.8zm-4.9 1.7h1.1v-3.7c0-.5.1-.9.4-1.2s.7-.5 1.2-.5h.2.2v-1.1c-.1 0-.2 0-.2 0h-.1c-.4 0-.8.2-1.1.5s-.5.6-.6.8v-1.1h-1v6.3zm-8.1 0h3.7c1.2 0 2-.3 2.5-1 .4-.5.5-1 .5-1.5 0-.7-.2-1.2-.6-1.6-.2-.2-.6-.4-1-.6.3-.2.5-.3.7-.5.3-.4.5-.8.5-1.4 0-.5-.1-.9-.4-1.3-.4-.6-1.2-.9-2.2-.9h-3.8v8.8zm1.2-1v-3.1h2.4c.5 0 .9.1 1.2.2.6.2.9.7.9 1.3 0 .4-.1.7-.3 1-.3.4-.8.6-1.6.6zm0-4v-2.7h2.1c.5 0 .9.1 1.2.2.5.2.7.6.7 1.2s-.2 1-.7 1.2c-.3.1-.7.2-1.2.2h-2.1zm-4.5-1.4h-.9v.9h.9v4.2c0 .4.1.7.3 1s.5.4 1 .4h.4c.1 0 .3 0 .4-.1v-.9h-.2-.2c-.2 0-.3 0-.4-.1-.2-.1-.2-.2-.2-.4v-4.2h1v-.9h-1v-1.8h-1.1zm-6.2 2.7c0-.5.2-1 .5-1.4s.7-.5 1.2-.5c.7 0 1.2.3 1.5.8.2.3.3.7.3 1.1zm1.8-2.8c-.9 0-1.6.3-2.2 1-.6.6-.8 1.5-.8 2.5s.3 1.9.8 2.4c.6.6 1.2.9 2 .9.3 0 .6 0 .9-.1.5-.1.9-.3 1.2-.6.2-.2.4-.4.5-.7.2-.3.3-.6.3-.8h-1.1c-.1.3-.2.5-.4.8-.3.4-.8.6-1.3.6-.6 0-1-.2-1.3-.6s-.4-.9-.5-1.6h4.7c0-.6 0-1.1-.1-1.4-.1-.4-.2-.8-.4-1.1s-.5-.6-1-.8c-.4-.4-.8-.5-1.3-.5zm-4.3-2.2h-1.2v5.9c0 .7-.1 1.2-.2 1.5-.2.4-.6.7-1.2.7-.5 0-.8-.1-1-.4-.2-.2-.3-.6-.3-1.1v-.6h-1.1v.6c0 .9.2 1.5.7 1.9s1 .5 1.7.5c1.1 0 1.9-.4 2.3-1.1.2-.4.3-1 .3-1.7z"/></g><path d="m279.9 159.2c-4.8 0-8.8-3.9-8.8-8.8 0-4.8 3.9-8.8 8.8-8.8 4.8 0 8.8 3.9 8.8 8.8s-3.9 8.8-8.8 8.8z" fill="#fff"/><path d="m279.9 159.2v-.2c-2.4 0-4.5-1-6-2.5s-2.5-3.7-2.5-6c0-2.4 1-4.5 2.5-6s3.7-2.5 6-2.5c2.4 0 4.5 1 6 2.5s2.5 3.7 2.5 6c0 2.4-1 4.5-2.5 6s-3.7 2.5-6 2.5v.2.2c5 0 9-4 9-9s-4-9-9-9-9 4-9 9 4 9 9 9z" fill="#1e1e1e"/><path d="m279.9 151.7c-.7 0-1.3-.6-1.3-1.3s.6-1.3 1.3-1.3 1.3.6 1.3 1.3-.6 1.3-1.3 1.3" fill="#1e1e1e"/><path d="m334.1 113.2c3.4-3.4 9-3.4 12.4 0s3.4 9 0 12.4-9 3.4-12.4 0-3.4-8.9 0-12.4z" fill="#fff"/><path d="m334.1 113.2.2.2c1.7-1.7 3.8-2.5 6-2.5s4.4.8 6 2.5c1.7 1.7 2.5 3.8 2.5 6s-.8 4.4-2.5 6c-1.7 1.7-3.8 2.5-6 2.5s-4.4-.8-6-2.5c-1.7-1.7-2.5-3.8-2.5-6s.8-4.4 2.5-6l-.2-.2-.2-.2c-1.8 1.8-2.6 4.1-2.6 6.4s.9 4.6 2.6 6.4c1.8 1.8 4.1 2.6 6.4 2.6s4.6-.9 6.4-2.6c1.8-1.8 2.6-4.1 2.6-6.4s-.9-4.6-2.6-6.4c-1.8-1.8-4.1-2.6-6.4-2.6s-4.6.9-6.4 2.6z" fill="#1e1e1e"/><path d="m340.3 120.7c-.7 0-1.3-.6-1.3-1.3s.6-1.3 1.3-1.3 1.3.6 1.3 1.3-.6 1.3-1.3 1.3" fill="#1e1e1e"/><path d="m419.2 64.2c.1-4.8 4.1-8.7 8.9-8.6s8.7 4.1 8.6 8.9-4.1 8.7-8.9 8.6-8.7-4.1-8.6-8.9z" fill="#fff"/><path d="m419.2 64.2h.2c.1-4.7 3.9-8.4 8.5-8.4h.1c4.7.1 8.4 3.9 8.4 8.5v.1c-.1 4.7-3.9 8.4-8.5 8.4h-.1c-4.7-.1-8.4-3.9-8.4-8.5v-.1h-.2-.2v.1c0 4.9 3.9 8.9 8.9 9h.1c4.9 0 8.9-3.9 9-8.9v-.1c0-4.9-3.9-8.9-8.9-9h-.1c-4.9 0-8.9 3.9-9 8.9z" fill="#1e1e1e"/><path d="m427.9 65.6c-.7 0-1.3-.6-1.3-1.3s.6-1.3 1.3-1.3 1.3.6 1.3 1.3-.6 1.3-1.3 1.3" fill="#1e1e1e"/><path d="m243.5 183.5c3.4-3.4 9-3.4 12.4 0s3.4 9 0 12.4-9 3.4-12.4 0-3.4-9 0-12.4z" fill="#fff"/><path d="m243.5 183.5.2.2c1.7-1.7 3.8-2.5 6-2.5s4.4.8 6 2.5c1.7 1.7 2.5 3.8 2.5 6s-.8 4.4-2.5 6c-1.7 1.7-3.8 2.5-6 2.5s-4.4-.8-6-2.5c-1.7-1.7-2.5-3.8-2.5-6s.8-4.4 2.5-6l-.2-.2-.2-.2c-1.8 1.8-2.6 4.1-2.6 6.4s.9 4.6 2.6 6.4c1.8 1.8 4.1 2.6 6.4 2.6s4.6-.9 6.4-2.6c1.8-1.8 2.6-4.1 2.6-6.4s-.9-4.6-2.6-6.4c-1.8-1.8-4.1-2.6-6.4-2.6s-4.6.9-6.4 2.6z" fill="#1e1e1e"/><path d="m249.7 190.9c-.7 0-1.3-.6-1.3-1.3s.6-1.3 1.3-1.3 1.3.6 1.3 1.3c0 .8-.6 1.3-1.3 1.3" fill="#1e1e1e"/><path d="m186.3 166.2c-6.2 0-11.3-5.1-11.3-11.3s5.1-11.3 11.3-11.3 11.3 5.1 11.3 11.3c0 6.3-5.1 11.3-11.3 11.3z" fill="#fff"/><path d="m186.3 166.2v-.2c-3 0-5.8-1.2-7.8-3.2s-3.2-4.8-3.2-7.8 1.2-5.8 3.2-7.8 4.8-3.2 7.8-3.2 5.8 1.2 7.8 3.2 3.2 4.8 3.2 7.8-1.2 5.8-3.2 7.8-4.8 3.2-7.8 3.2v.2.2c6.4 0 11.5-5.2 11.5-11.5 0-6.4-5.2-11.5-11.5-11.5-6.4 0-11.5 5.2-11.5 11.5 0 6.4 5.2 11.5 11.5 11.5z" fill="#1e1e1e"/><path d="m186.3 156.2c-.7 0-1.3-.6-1.3-1.3s.6-1.3 1.3-1.3 1.3.6 1.3 1.3-.6 1.3-1.3 1.3" fill="#1e1e1e"/><path d="m347.2 170c0 3.8-3.1 6.9-6.9 6.9s-6.9-3.1-6.9-6.9 3.1-6.9 6.9-6.9 6.9 3.1 6.9 6.9z" fill="#fff"/><path d="m347.2 170h-.2c0 1.8-.7 3.5-1.9 4.7s-2.9 1.9-4.7 1.9-3.5-.7-4.7-1.9-1.9-2.9-1.9-4.7.7-3.5 1.9-4.7 2.9-1.9 4.7-1.9 3.5.7 4.7 1.9 1.9 2.9 1.9 4.7h.2.2c0-4-3.2-7.1-7.1-7.1s-7.1 3.2-7.1 7.1 3.2 7.1 7.1 7.1 7.1-3.2 7.1-7.1z" fill="#1e1e1e"/><path d="m341.6 170c0 .7-.6 1.3-1.3 1.3s-1.3-.6-1.3-1.3.6-1.3 1.3-1.3 1.3.6 1.3 1.3" fill="#1e1e1e"/><path d="m254.2 139.6h1.2v-8.8h-1.2zm-5.5-9c-1.3 0-2.3.5-3 1.4-.7.8-1 1.9-1 3.2 0 1.7.5 3 1.4 3.8.7.6 1.5.9 2.5.9 1.2 0 2.1-.4 2.8-1.1.6-.6.9-1.4 1-2.3h-1.2c-.1.6-.3 1-.5 1.4-.5.7-1.1 1-2 1s-1.6-.3-2.1-1c-.5-.6-.7-1.5-.7-2.5 0-1.3.3-2.2.8-2.8s1.2-.9 2.1-.9c.7 0 1.2.2 1.6.5s.6.8.8 1.3h1.2c-.1-.7-.4-1.4-1-2s-1.6-.9-2.7-.9zm-13.7 7c0 .6.2 1.2.6 1.6s1.1.6 2.1.6c.9 0 1.6-.2 2-.6s.7-.9.7-1.5-.2-1-.6-1.3c-.3-.2-.8-.4-1.6-.5l-.7-.2c-.3-.1-.6-.2-.7-.3-.3-.2-.4-.4-.4-.7s.1-.5.3-.6.5-.2.9-.2c.6 0 1.1.1 1.3.4.2.2.2.4.3.7h1c0-.4-.1-.8-.4-1.2-.4-.6-1.1-.8-2.1-.8-.7 0-1.3.2-1.8.6-.4.4-.7.9-.7 1.5 0 .5.2.9.7 1.2.3.2.7.3 1.2.5l.9.2c.5.1.8.2.9.3.2.1.4.4.4.6 0 .4-.2.6-.5.8s-.7.3-1.1.3c-.7 0-1.2-.2-1.4-.5-.2-.2-.2-.5-.3-.8h-1zm-2.3-5.5h1.1v-1.2h-1.1zm0 7.5h1.1v-6.4h-1.1zm-6.9-6.4 2.4 6.4h1.1l2.4-6.4h-1.2l-1.8 5.2-1.7-5.2zm-4.4 2.8c-.6.1-1.1.3-1.5.6s-.6.8-.6 1.4c0 .5.2 1 .6 1.4s.9.5 1.5.5c.5 0 .9-.1 1.4-.3s.7-.5.9-.7c0 .3.1.5.2.6.2.3.4.4.8.4h.4c.1 0 .2 0 .4-.1v-.8h-.2-.2c-.1 0-.2 0-.3-.1s-.1-.2-.1-.3v-3.7c0-.6-.2-1.1-.7-1.3-.5-.3-1.1-.4-1.8-.4-.6 0-1.2.2-1.7.5s-.7.9-.8 1.7h1c0-.3.1-.6.3-.8.2-.3.6-.5 1.2-.5.5 0 .9.1 1.1.2.3.2.4.4.4.8 0 .2 0 .3-.1.4-.1.2-.2.3-.5.3zm-.8 1.9c0-.4.2-.7.5-.9.2-.1.5-.2.9-.2l.7-.1c.2 0 .4-.1.6-.1.2-.1.4-.1.5-.2v.9c0 .7-.3 1.1-.9 1.4-.4.2-.7.3-1.1.3-.3 0-.6-.1-.8-.3-.3-.2-.4-.5-.4-.8zm-4.9 1.7h1.1v-3.7c0-.5.1-.9.4-1.2s.7-.5 1.2-.5h.2.2v-1.1c-.1 0-.2 0-.2 0h-.1c-.4 0-.8.2-1.1.5s-.5.6-.6.8v-1.1h-1v6.3zm-7.7-8.8v1h3v7.7h1.2v-7.7h3v-1z" fill="#333"/><path d="m407.2 149.3h-.9v.9h.9v4.2c0 .4.1.7.3 1s.5.4 1 .4h.4c.1 0 .3 0 .4-.1v-.9h-.2-.2c-.2 0-.3 0-.4-.1-.2-.1-.2-.2-.2-.4v-4.2h1v-.9h-1v-1.8h-1.1zm-3.4-1v1h-.8v.8h.9v5.5h1.1v-5.5h1.1v-.8h-1.1c0-.7 0-1.1.1-1.3s.3-.3.6-.3h.1.2v-1c-.1 0-.2 0-.2 0h-.2c-.7 0-1.2.2-1.5.5-.2.3-.2.6-.3 1.1zm-4.5.8c-.9 0-1.6.3-2.2 1-.5.6-.8 1.5-.8 2.6 0 1 .3 1.8.8 2.4s1.2.9 2.1.9c1 0 1.8-.3 2.3-1s.7-1.5.7-2.6-.3-1.9-.8-2.4-1.2-.9-2.1-.9zm0 5.9c-.6 0-1.1-.2-1.4-.7s-.4-1-.4-1.7.1-1.3.4-1.8.8-.8 1.4-.8c.7 0 1.2.3 1.5.9.2.4.3.9.3 1.5 0 .7-.1 1.3-.4 1.8-.2.5-.7.8-1.4.8zm-9.1-1.3c0 .6.2 1.2.6 1.6s1.1.6 2.1.6c.9 0 1.6-.2 2-.6s.7-.9.7-1.5-.2-1-.6-1.3c-.3-.2-.8-.4-1.6-.5l-.7-.2c-.3-.1-.6-.2-.7-.3-.3-.2-.4-.4-.4-.7s.1-.5.3-.6.5-.2.9-.2c.6 0 1.1.1 1.3.4.2.2.2.4.3.7h1c0-.4-.1-.8-.4-1.2-.4-.6-1.1-.8-2.1-.8-.7 0-1.3.2-1.8.6-.4.4-.7.9-.7 1.5 0 .5.2.9.7 1.2.3.2.7.3 1.2.5l.9.2c.5.1.8.2.9.3.2.1.4.4.4.6 0 .4-.2.6-.5.8s-.7.3-1.1.3c-.7 0-1.2-.2-1.4-.5-.2-.2-.2-.5-.3-.8h-1zm-3.8-4.6c-.9 0-1.6.3-2.2 1-.5.6-.8 1.5-.8 2.6 0 1 .3 1.8.8 2.4s1.2.9 2.1.9c1 0 1.8-.3 2.3-1s.7-1.5.7-2.6-.3-1.9-.8-2.4-1.3-.9-2.1-.9zm0 5.9c-.6 0-1.1-.2-1.4-.7s-.4-1-.4-1.7.1-1.3.4-1.8.8-.8 1.4-.8c.7 0 1.2.3 1.5.9.2.4.3.9.3 1.5 0 .7-.1 1.3-.4 1.8s-.7.8-1.4.8zm-6.6.7h1.1v-3.7c0-.5.1-.9.4-1.2s.7-.5 1.2-.5h.2.2v-1.1c-.1 0-.2 0-.2 0h-.1c-.4 0-.8.2-1.1.5s-.5.6-.6.8v-1.1h-1v6.3zm-3.7-6.6c-.8 0-1.5.3-2.1.9s-.8 1.5-.8 2.6c0 .9.2 1.7.7 2.3s1.2.9 2 .9c.7 0 1.4-.2 1.8-.6.5-.4.8-1 .9-1.9h-1c-.1.5-.3.8-.5 1.1-.3.3-.6.4-1.1.4-.6 0-1-.2-1.3-.7-.3-.4-.4-1-.4-1.6s.1-1.2.3-1.6c.3-.7.8-1 1.5-1 .5 0 .9.1 1.1.4s.4.6.4 1h1c-.1-.9-.4-1.5-.8-1.8-.4-.2-1-.4-1.7-.4zm-5.2-1h1.1v-1.2h-1.1zm0 7.6h1.1v-6.4h-1.1zm-10.1 0h1.1v-5.2c0-.2 0-.5 0-1 0-.4 0-.8 0-1v-.3l2.5 7.4h1.2l2.5-7.4v1.3.9 5.2h1.1v-8.8h-1.7l-2.5 7.4-2.5-7.4h-1.7z" fill="#333"/><path d="m427.9 162.7c-6.2 0-11.3-5.1-11.3-11.3s5.1-11.3 11.3-11.3 11.3 5 11.3 11.3-5 11.3-11.3 11.3z" fill="#fff"/><path d="m427.9 162.7v-.2c-3 0-5.8-1.2-7.8-3.2s-3.2-4.8-3.2-7.8 1.2-5.8 3.2-7.8 4.8-3.2 7.8-3.2 5.8 1.2 7.8 3.2 3.2 4.8 3.2 7.8-1.2 5.8-3.2 7.8-4.8 3.2-7.8 3.2v.2.2c6.4 0 11.5-5.2 11.5-11.5 0-6.4-5.2-11.5-11.5-11.5-6.4 0-11.5 5.2-11.5 11.5 0 6.4 5.2 11.5 11.5 11.5z" fill="#1e1e1e"/><path d="m427.9 152.7c-.7 0-1.3-.6-1.3-1.3s.6-1.3 1.3-1.3 1.3.6 1.3 1.3-.6 1.3-1.3 1.3" fill="#1e1e1e"/><path d="m308.4 123.2c-4.8 0-8.8-3.9-8.8-8.8 0-4.8 3.9-8.8 8.8-8.8 4.8 0 8.8 3.9 8.8 8.8-.1 4.9-4 8.8-8.8 8.8z" fill="#fff"/><path d="m308.4 123.2v-.2c-2.4 0-4.5-1-6-2.5s-2.5-3.7-2.5-6c0-2.4 1-4.5 2.5-6s3.7-2.5 6-2.5c2.4 0 4.5 1 6 2.5s2.5 3.7 2.5 6c0 2.4-1 4.5-2.5 6s-3.7 2.5-6 2.5v.2.2c5 0 9-4 9-9s-4-9-9-9-9 4-9 9 4 9 9 9z" fill="#1e1e1e"/><path d="m308.4 115.7c-.7 0-1.3-.6-1.3-1.3s.6-1.3 1.3-1.3 1.3.6 1.3 1.3c-.1.7-.6 1.3-1.3 1.3" fill="#1e1e1e"/><path d="m141 230.4c-6.2 0-11.3-5-11.3-11.3 0-6.2 5.1-11.3 11.3-11.3s11.3 5.1 11.3 11.3c0 6.3-5.1 11.3-11.3 11.3z" fill="#ccc"/><path d="m141 230.4v-.2c-3 0-5.8-1.2-7.8-3.2s-3.2-4.8-3.2-7.8 1.2-5.8 3.2-7.8 4.8-3.2 7.8-3.2 5.8 1.2 7.8 3.2 3.2 4.8 3.2 7.8-1.2 5.8-3.2 7.8-4.8 3.2-7.8 3.2v.2.2c6.4 0 11.5-5.2 11.5-11.5 0-6.4-5.2-11.5-11.5-11.5-6.4 0-11.5 5.2-11.5 11.5 0 6.4 5.2 11.5 11.5 11.5z" fill="#aaa"/><path d="m141 220.4c-.7 0-1.3-.6-1.3-1.3s.6-1.3 1.3-1.3 1.3.6 1.3 1.3c-.1.7-.6 1.3-1.3 1.3z" fill="#fff"/><path d="m141 220.4v-.2c-.6 0-1-.4-1-1s.4-1 1-1 1 .4 1 1-.4 1-1 1v.2.2c.8 0 1.5-.7 1.5-1.5s-.7-1.5-1.5-1.5-1.5.7-1.5 1.5.7 1.5 1.5 1.5z" fill="#1e1e1e"/><path d="m256.6 152.7c0 3.8-3.1 6.9-6.9 6.9s-6.9-3.1-6.9-6.9 3.1-6.9 6.9-6.9 6.9 3.1 6.9 6.9z" fill="#ccc"/><path d="m256.6 152.7h-.2c0 1.8-.7 3.5-1.9 4.7s-2.9 1.9-4.7 1.9-3.5-.7-4.7-1.9-1.9-2.9-1.9-4.7.7-3.5 1.9-4.7 2.9-1.9 4.7-1.9v-.2.2-.2.2c1.8 0 3.5.7 4.7 1.9s1.9 2.9 1.9 4.7h.2.2c0-3.9-3.2-7.1-7.1-7.1v.2-.2c-3.9 0-7.1 3.2-7.1 7.1s3.2 7.1 7.1 7.1 7.1-3.2 7.1-7.1z" fill="#aaa"/><path d="m251 152.7c0 .7-.6 1.3-1.3 1.3s-1.3-.6-1.3-1.3.6-1.3 1.3-1.3 1.3.6 1.3 1.3z" fill="#fff"/><path d="m251 152.7h-.2c0 .6-.5 1-1 1s-1-.5-1-1c0-.6.5-1 1-1 .6 0 1 .5 1 1h.2.2c0-.8-.7-1.5-1.5-1.5s-1.5.7-1.5 1.5.7 1.5 1.5 1.5 1.5-.7 1.5-1.5z" fill="#1e1e1e"/></svg>